<svg width="20" height="20" viewBox="0 0 20 20" xmlns="http://www.w3.org/2000/svg">
  <g transform="translate(2.5, 0.834)">
    <path d="M0 15.8333V2.5C0 1.83696 0.263581 1.20126 0.732422 0.732422C1.20126 0.263581 1.83696 0 2.5 0H9.58333C9.80435 0 10.0162 0.0878603 10.1725 0.244141L14.7559 4.82747C14.9121 4.98375 15 5.19565 15 5.41667V15.8333C15 16.4964 14.7364 17.1321 14.2676 17.6009C13.7987 18.0698 13.163 18.3333 12.5 18.3333H2.5C1.83696 18.3333 1.20126 18.0698 0.732422 17.6009C0.263581 17.1321 0 16.4964 0 15.8333ZM10 5H12.5716L10 2.42839V5ZM1.66667 15.8333C1.66667 16.0543 1.75453 16.2662 1.91081 16.4225C2.06709 16.5788 2.27899 16.6667 2.5 16.6667H12.5C12.721 16.6667 12.9329 16.5788 13.0892 16.4225C13.2455 16.2662 13.3333 16.0543 13.3333 15.8333V6.66667H9.16667C8.70643 6.66667 8.33333 6.29357 8.33333 5.83333V1.66667H2.5C2.27899 1.66667 2.06709 1.75453 1.91081 1.91081C1.75453 2.06709 1.66667 2.27899 1.66667 2.5V15.8333Z" fill="currentColor"/>
  </g>
</svg>
