<svg width="20" height="20" viewBox="0 0 20 20" fill="none" xmlns="http://www.w3.org/2000/svg">
<path d="M9.99972 1.6665C7.82336 1.6665 5.74196 2.47615 4.12325 3.89144L3.80587 4.18278L3.79366 4.19417L3.33305 4.65479V2.49984C3.33305 2.0396 2.95995 1.6665 2.49972 1.6665C2.03948 1.6665 1.66638 2.0396 1.66638 2.49984V6.6665C1.66638 6.88752 1.75424 7.09942 1.91052 7.2557C2.0668 7.41198 2.2787 7.49984 2.49972 7.49984H6.66638C7.12662 7.49984 7.49972 7.12674 7.49972 6.6665C7.49972 6.20627 7.12662 5.83317 6.66638 5.83317H4.51143L4.96065 5.38395L5.22026 5.14551C6.54383 3.9883 8.23868 3.33317 9.99972 3.33317C11.3183 3.33317 12.607 3.72449 13.7033 4.45703C14.7996 5.18954 15.654 6.23047 16.1586 7.44857C16.6631 8.66668 16.7958 10.0072 16.5386 11.3003C16.2814 12.5935 15.6464 13.7818 14.7141 14.7142C13.7817 15.6465 12.5934 16.2815 11.3002 16.5387C10.007 16.7959 8.66656 16.6633 7.44845 16.1587C6.23035 15.6541 5.18942 14.7997 4.45691 13.7035C3.72437 12.6071 3.33305 11.3184 3.33305 9.99984C3.33305 9.5396 2.95995 9.16651 2.49972 9.1665C2.03948 9.1665 1.66638 9.5396 1.66638 9.99984C1.66638 11.648 2.15533 13.2591 3.071 14.6296C3.98666 15.9999 5.28777 17.0685 6.81043 17.6992C8.33314 18.3299 10.0092 18.4944 11.6257 18.1729C13.2421 17.8513 14.7271 17.058 15.8925 15.8926C17.0578 14.7272 17.8512 13.2422 18.1727 11.6258C18.4943 10.0093 18.3298 8.33327 17.6991 6.81055C17.0684 5.28789 15.9998 3.98678 14.6294 3.07113C13.259 2.15545 11.6479 1.6665 9.99972 1.6665Z" fill="#8C8F98"/>
</svg>
