<svg width="40" height="40" viewBox="0 0 40 40" fill="none" xmlns="http://www.w3.org/2000/svg">
<path d="M28.8217 8.82116C29.4725 8.17029 30.5275 8.17029 31.1784 8.82116C31.8293 9.47204 31.8293 10.5271 31.1784 11.1779L22.3568 19.9995L31.1784 28.8212C31.8293 29.472 31.8293 30.5271 31.1784 31.1779C30.5275 31.8288 29.4725 31.8288 28.8217 31.1779L20 22.3563L11.1784 31.1779C10.5275 31.8288 9.47253 31.8288 8.82165 31.1779C8.17078 30.5271 8.17078 29.472 8.82165 28.8212L17.6433 19.9995L8.82165 11.1779C8.17078 10.5271 8.17078 9.47204 8.82165 8.82116C9.47253 8.17029 10.5275 8.17029 11.1784 8.82116L20 17.6428L28.8217 8.82116Z" fill="currentColor"/>
</svg>
