<svg width="20" height="20" viewBox="0 0 20 20" xmlns="http://www.w3.org/2000/svg">
  <g transform="translate(0.834, 0.834)">
    <path d="M16.6667 8.33333C16.6667 6.59525 15.9005 4.90776 14.502 3.64909C13.1005 2.38785 11.1824 1.66667 9.16667 1.66667C7.17754 1.66667 5.26964 2.4566 3.86312 3.86312C2.4566 5.26964 1.66667 7.17754 1.66667 9.16667C1.66667 11.1558 2.4566 13.0637 3.86312 14.4702C5.26964 15.8767 7.17754 16.6667 9.16667 16.6667H9.375C9.49107 16.6667 9.60504 16.6341 9.70378 16.5731C9.80239 16.5121 9.88222 16.4245 9.93408 16.3208C9.98587 16.2171 10.008 16.101 9.99756 15.9855C9.98713 15.8699 9.94431 15.7594 9.87467 15.6665L9.62484 15.3337C9.3695 14.9932 9.21385 14.5881 9.17562 14.1642C9.13741 13.7405 9.21815 13.3143 9.40837 12.9338C9.5987 12.5531 9.89188 12.233 10.2539 12.0093C10.6159 11.7856 11.0328 11.6667 11.4583 11.6667H13.3333C14.2174 11.6667 15.065 11.3152 15.6901 10.6901C16.3152 10.065 16.6667 9.21739 16.6667 8.33333ZM5.83333 9.58333C5.83333 10.2737 5.27369 10.8333 4.58333 10.8333C3.89298 10.8333 3.33333 10.2737 3.33333 9.58333C3.33333 8.89298 3.89298 8.33333 4.58333 8.33333C5.27369 8.33333 5.83333 8.89298 5.83333 9.58333ZM18.3333 8.33333C18.3333 9.65942 17.8062 10.9308 16.8685 11.8685C15.9308 12.8062 14.6594 13.3333 13.3333 13.3333H11.4583C11.3423 13.3333 11.2283 13.3659 11.1296 13.4269C11.0309 13.4879 10.9511 13.5755 10.8993 13.6792C10.8475 13.7829 10.8254 13.899 10.8358 14.0145C10.8462 14.1301 10.889 14.2406 10.9587 14.3335L11.2085 14.6663C11.4638 15.0068 11.6195 15.4119 11.6577 15.8358C11.6959 16.2595 11.6152 16.6857 11.425 17.0662C11.2346 17.4469 10.9415 17.767 10.5794 17.9907C10.2174 18.2144 9.80054 18.3333 9.375 18.3333H9.16667C6.73552 18.3333 4.40382 17.3677 2.68473 15.6486C0.96565 13.9295 0 11.5978 0 9.16667C0 6.73552 0.96565 4.40382 2.68473 2.68473C4.40382 0.96565 6.73552 0 9.16667 0C11.5711 0 13.8927 0.858714 15.6169 2.41048C17.3439 3.96486 18.3333 6.09318 18.3333 8.33333ZM15 7.91667C15 8.60702 14.4404 9.16667 13.75 9.16667C13.0596 9.16667 12.5 8.60702 12.5 7.91667C12.5 7.22631 13.0596 6.66667 13.75 6.66667C14.4404 6.66667 15 7.22631 15 7.91667ZM7.5 5.41667C7.5 6.10702 6.94036 6.66667 6.25 6.66667C5.55964 6.66667 5 6.10702 5 5.41667C5 4.72631 5.55964 4.16667 6.25 4.16667C6.94036 4.16667 7.5 4.72631 7.5 5.41667ZM11.6667 4.58333C11.6667 5.27369 11.107 5.83333 10.4167 5.83333C9.72631 5.83333 9.16667 5.27369 9.16667 4.58333C9.16667 3.89298 9.72631 3.33333 10.4167 3.33333C11.107 3.33333 11.6667 3.89298 11.6667 4.58333Z" fill="currentColor"/>
  </g>
</svg>
