<svg width="1024" height="1024" viewBox="0 0 1024 1024" fill="none" xmlns="http://www.w3.org/2000/svg">
<path d="M716.241 484.091L686.716 567H665.125L635.599 484.091H656.434L675.488 545.679H676.352L695.46 484.091H716.241Z" fill="white"/>
<path d="M591.162 568.619C582.85 568.619 575.671 566.892 569.625 563.437C563.616 559.947 558.992 555.017 555.753 548.648C552.515 542.242 550.895 534.703 550.895 526.031C550.895 517.503 552.515 510.018 555.753 503.577C559.028 497.099 563.598 492.061 569.463 488.463C575.329 484.828 582.22 483.011 590.137 483.011C595.247 483.011 600.069 483.839 604.603 485.494C609.173 487.114 613.203 489.632 616.694 493.051C620.22 496.47 622.991 500.824 625.006 506.113C627.021 511.367 628.029 517.629 628.029 524.898V530.889H560.071V517.719H609.299C609.263 513.976 608.453 510.648 606.87 507.733C605.286 504.782 603.073 502.461 600.23 500.77C597.424 499.078 594.149 498.233 590.407 498.233C586.412 498.233 582.904 499.204 579.881 501.148C576.858 503.055 574.501 505.574 572.81 508.704C571.155 511.799 570.309 515.2 570.273 518.906V530.403C570.273 535.225 571.155 539.364 572.918 542.818C574.681 546.237 577.146 548.864 580.313 550.699C583.48 552.498 587.186 553.398 591.432 553.398C594.275 553.398 596.848 553.002 599.151 552.21C601.454 551.382 603.451 550.177 605.142 548.594C606.834 547.01 608.111 545.049 608.975 542.71L627.219 544.761C626.068 549.583 623.873 553.793 620.634 557.392C617.431 560.954 613.329 563.725 608.327 565.704C603.325 567.648 597.604 568.619 591.162 568.619Z" fill="white"/>
<path d="M482.641 567H445.181V456.455H483.397C494.372 456.455 503.8 458.668 511.681 463.094C519.597 467.484 525.679 473.799 529.925 482.04C534.171 490.28 536.294 500.14 536.294 511.619C536.294 523.135 534.153 533.03 529.871 541.307C525.625 549.583 519.489 555.935 511.465 560.361C503.476 564.787 493.868 567 482.641 567ZM465.206 549.673H481.669C489.37 549.673 495.793 548.27 500.939 545.463C506.085 542.62 509.954 538.392 512.544 532.778C515.135 527.129 516.431 520.076 516.431 511.619C516.431 503.163 515.135 496.146 512.544 490.568C509.954 484.955 506.121 480.762 501.047 477.992C496.009 475.185 489.748 473.781 482.263 473.781H465.206V549.673Z" fill="white"/>
</svg>
