<svg width="12" height="12" viewBox="0 0 12 12" fill="none" xmlns="http://www.w3.org/2000/svg">
<path d="M7.74665 2.64645C7.94191 2.45118 8.25842 2.45118 8.45368 2.64645C8.64894 2.84171 8.64894 3.15822 8.45368 3.35348L2.95368 8.85348C2.76224 9.04491 2.4531 9.04928 2.25641 8.86324L0.406316 7.11324C0.205765 6.92348 0.197046 6.6068 0.386785 6.40621C0.576551 6.20566 0.893224 6.19694 1.09382 6.38668L2.5904 7.80221L7.74665 2.64645ZM10.8966 2.64645C11.0918 2.45118 11.4083 2.45118 11.6036 2.64645C11.7988 2.84171 11.7988 3.15822 11.6036 3.35348L6.10358 8.85348C5.90832 9.04874 5.59181 9.04874 5.39655 8.85348L4.89655 8.35348C4.70129 8.15822 4.70129 7.84171 4.89655 7.64645C5.09181 7.45118 5.40832 7.45118 5.60358 7.64645L5.75007 7.79293L10.8966 2.64645Z" fill="currentColor"/>
</svg>
