<svg width="32" height="32" viewBox="0 0 32 32" fill="none" xmlns="http://www.w3.org/2000/svg">
<path d="M16 7.96667C21.0533 7.96667 25.56 10.8067 27.76 15.3C26.9733 16.9267 25.8667 18.3267 24.5467 19.46L26.4267 21.34C28.28 19.7 29.7467 17.6467 30.6667 15.3C28.36 9.44667 22.6667 5.3 16 5.3C14.3067 5.3 12.68 5.56667 11.1467 6.06L13.3467 8.26C14.2133 8.08667 15.0933 7.96667 16 7.96667ZM14.5733 9.48667L17.3333 12.2467C18.0933 12.58 18.7067 13.1933 19.04 13.9533L21.8 16.7133C21.9067 16.26 21.9867 15.78 21.9867 15.2867C22 11.98 19.3067 9.3 16 9.3C15.5067 9.3 15.04 9.36667 14.5733 9.48667ZM2.68001 5.12667L6.25334 8.7C4.08001 10.4067 2.36001 12.6733 1.33334 15.3C3.64001 21.1533 9.33334 25.3 16 25.3C18.0267 25.3 19.9733 24.9133 21.76 24.2067L26.32 28.7667L28.2 26.8867L4.56001 3.23334L2.68001 5.12667ZM12.68 15.1267L16.16 18.6067C16.1067 18.62 16.0533 18.6333 16 18.6333C14.16 18.6333 12.6667 17.14 12.6667 15.3C12.6667 15.2333 12.68 15.1933 12.68 15.1267ZM8.14668 10.5933L10.48 12.9267C10.1733 13.66 10 14.46 10 15.3C10 18.6067 12.6933 21.3 16 21.3C16.84 21.3 17.64 21.1267 18.36 20.82L19.6667 22.1267C18.4933 22.4467 17.2667 22.6333 16 22.6333C10.9467 22.6333 6.44001 19.7933 4.24001 15.3C5.17334 13.3933 6.53334 11.82 8.14668 10.5933Z" fill="white" fill-opacity="0.48"/>
</svg>
