<svg width="20" height="20" viewBox="0 0 20 20" xmlns="http://www.w3.org/2000/svg">
  <g transform="translate(1.666, 1.666)">
    <path d="M1.66667 10.8333V15H5.83333V10.8333H1.66667ZM10.8333 10.8333V15H15V10.8333H10.8333ZM1.66667 1.66667V5.83333H5.83333V1.66667H1.66667ZM10.8333 1.66667V5.83333H15V1.66667H10.8333ZM7.5 15C7.5 15.9205 6.75381 16.6667 5.83333 16.6667H1.66667C0.746192 16.6667 0 15.9205 0 15V10.8333C0 9.91286 0.746192 9.16667 1.66667 9.16667H5.83333C6.75381 9.16667 7.5 9.91286 7.5 10.8333V15ZM16.6667 15C16.6667 15.9205 15.9205 16.6667 15 16.6667H10.8333C9.91286 16.6667 9.16667 15.9205 9.16667 15V10.8333C9.16667 9.91286 9.91286 9.16667 10.8333 9.16667H15C15.9205 9.16667 16.6667 9.91286 16.6667 10.8333V15ZM7.5 5.83333C7.5 6.75381 6.75381 7.5 5.83333 7.5H1.66667C0.746192 7.5 0 6.75381 0 5.83333V1.66667C0 0.746192 0.746192 0 1.66667 0H5.83333C6.75381 0 7.5 0.746192 7.5 1.66667V5.83333ZM16.6667 5.83333C16.6667 6.75381 15.9205 7.5 15 7.5H10.8333C9.91286 7.5 9.16667 6.75381 9.16667 5.83333V1.66667C9.16667 0.746192 9.91286 0 10.8333 0H15C15.9205 0 16.6667 0.746192 16.6667 1.66667V5.83333Z" fill="currentColor"/>
  </g>
</svg>
