<svg width="28" height="28" viewBox="0 0 28 28" fill="none" xmlns="http://www.w3.org/2000/svg">
<path d="M3.50001 20.4748V14.875C3.50001 14.3474 3.49954 13.8934 3.52507 13.5192C3.55132 13.1345 3.6092 12.7497 3.76661 12.3696C4.12183 11.512 4.8037 10.8302 5.6613 10.4749C6.04147 10.3175 6.42615 10.2596 6.81088 10.2334C7.18512 10.2079 7.63916 10.2083 8.16667 10.2083C8.811 10.2083 9.33334 10.7307 9.33334 11.375C9.33334 12.0193 8.811 12.5417 8.16667 12.5417C7.60727 12.5417 7.24569 12.5422 6.96924 12.561C6.70352 12.5792 6.60195 12.6104 6.55339 12.6305C6.26787 12.7489 6.04062 12.9761 5.92221 13.2617C5.9021 13.3102 5.87085 13.4119 5.85271 13.6776C5.83385 13.954 5.83334 14.3154 5.83334 14.875V20.4748C5.83334 21.1474 5.83482 21.5822 5.86182 21.9126C5.88768 22.2286 5.93155 22.3459 5.96094 22.4036C6.07333 22.6242 6.25184 22.8039 6.47022 22.9152C6.52771 22.9444 6.6452 22.9885 6.96127 23.0143C7.29136 23.0413 7.72545 23.0417 8.39682 23.0417H19.6043C20.2756 23.0417 20.7089 23.0413 21.0387 23.0143C21.3549 22.9885 21.4723 22.9445 21.5298 22.9152C21.7488 22.8036 21.9282 22.6245 22.0402 22.4048V22.4036C22.0695 22.346 22.1136 22.2285 22.1393 21.9137C22.1663 21.5838 22.1667 21.1495 22.1667 20.4782V14.875C22.1667 14.3155 22.1662 13.9539 22.1473 13.6776C22.1291 13.412 22.0979 13.3103 22.0778 13.2617C21.974 13.0113 21.7868 12.8061 21.5503 12.6795L21.4466 12.6305C21.398 12.6104 21.2966 12.5792 21.0308 12.561C20.7543 12.5422 20.3929 12.5417 19.8333 12.5417C19.189 12.5417 18.6667 12.0193 18.6667 11.375C18.6667 10.7307 19.189 10.2083 19.8333 10.2083C20.3609 10.2083 20.8149 10.2079 21.1891 10.2334C21.5738 10.2596 21.9586 10.3176 22.3387 10.4749H22.3398C23.1975 10.8303 23.8784 11.5124 24.2334 12.3696C24.3908 12.7496 24.4487 13.1345 24.4749 13.5192C24.5005 13.8934 24.5 14.3474 24.5 14.875V20.4782C24.5 21.1108 24.5012 21.6559 24.4647 22.1029C24.427 22.5635 24.3431 23.0221 24.1183 23.4632C23.7831 24.1212 23.248 24.6576 22.5894 24.9933C22.1483 25.2181 21.6897 25.302 21.229 25.3397C20.7821 25.3762 20.2371 25.375 19.6043 25.375H8.39682C7.76394 25.375 7.21818 25.3762 6.771 25.3397C6.31035 25.302 5.8518 25.2181 5.41065 24.9933C4.75111 24.6572 4.21662 24.1205 3.88168 23.4632C3.65692 23.022 3.57303 22.5638 3.53532 22.1029C3.49875 21.6553 3.50001 21.1089 3.50001 20.4748ZM12.8333 14.875V6.02473L11.3249 7.53319C10.8693 7.9888 10.1307 7.9888 9.67514 7.53319C9.21952 7.07758 9.21952 6.33907 9.67514 5.88345L13.1751 2.38345L13.2606 2.30598C13.4682 2.13584 13.7292 2.04166 14 2.04166C14.3094 2.04166 14.6061 2.16466 14.8249 2.38345L18.3249 5.88345C18.7805 6.33906 18.7805 7.07758 18.3249 7.53319C17.8693 7.9888 17.1307 7.9888 16.6751 7.53319L15.1667 6.02473V14.875C15.1667 15.5193 14.6443 16.0417 14 16.0417C13.3557 16.0417 12.8333 15.5193 12.8333 14.875Z" fill="#F4F4F5"/>
</svg>
