<svg width="20" height="20" viewBox="0 0 20 20" xmlns="http://www.w3.org/2000/svg">
  <g transform="translate(0.834, 2.5)">
    <path d="M17.5 13.3333C17.9602 13.3333 18.3333 13.7064 18.3333 14.1667C18.3333 14.6269 17.9602 15 17.5 15H0.833333C0.373096 15 0 14.6269 0 14.1667C0 13.7064 0.373096 13.3333 0.833333 13.3333H17.5ZM15.8333 2.5C15.8333 2.03976 15.4602 1.66667 15 1.66667H3.33333C2.8731 1.66667 2.5 2.03976 2.5 2.5V9.16667C2.5 9.6269 2.8731 10 3.33333 10H15C15.4602 10 15.8333 9.6269 15.8333 9.16667V2.5ZM17.5 9.16667C17.5 10.5474 16.3807 11.6667 15 11.6667H3.33333C1.95262 11.6667 0.833333 10.5474 0.833333 9.16667V2.5C0.833333 1.11929 1.95262 0 3.33333 0H15C16.3807 0 17.5 1.11929 17.5 2.5V9.16667Z" fill="currentColor"/>
  </g>
</svg>
