<svg width="20" height="20" viewBox="0 0 20 20" xmlns="http://www.w3.org/2000/svg">
  <g transform="translate(1.042, 2.916)">
    <path d="M0 9.58333C0 7.79797 1.02028 6.25241 2.50814 5.49561C2.50295 5.40044 2.5 5.30467 2.5 5.20833C2.5 2.33185 4.83185 0 7.70833 0C9.84785 0 11.6835 1.28992 12.4854 3.13314C12.5591 3.12825 12.6335 3.125 12.7083 3.125C14.5493 3.125 16.0417 4.61738 16.0417 6.45833C16.0417 6.58427 16.0318 6.70843 16.0181 6.83106C17.1551 7.52591 17.9167 8.77638 17.9167 10.2083C17.9167 12.3945 16.1445 14.1667 13.9583 14.1667H4.58333C2.05203 14.1667 0 12.1146 0 9.58333ZM4.16667 5.20833C4.16667 5.43415 4.18772 5.65467 4.2277 5.86751C4.3046 6.27784 4.06596 6.68166 3.66943 6.81234C2.50521 7.19603 1.66667 8.2929 1.66667 9.58333C1.66667 11.1942 2.9725 12.5 4.58333 12.5H13.9583C15.224 12.5 16.25 11.474 16.25 10.2083C16.25 9.23059 15.6374 8.39354 14.7721 8.06478C14.3497 7.90427 14.1318 7.43649 14.2814 7.01009C14.3416 6.83846 14.375 6.65321 14.375 6.45833C14.375 5.53786 13.6288 4.79167 12.7083 4.79167C12.5273 4.79167 12.3543 4.81999 12.1932 4.87223C11.9757 4.9427 11.7389 4.92124 11.5381 4.81201C11.3373 4.70269 11.1901 4.51536 11.1312 4.29443C10.7282 2.78093 9.34728 1.66667 7.70833 1.66667C5.75232 1.66667 4.16667 3.25233 4.16667 5.20833Z" fill="currentColor"/>
  </g>
</svg>
