<svg xmlns="http://www.w3.org/2000/svg" width="16" height="16" viewBox="0 0 16 16">
  <path transform="translate(1.333 2.299)" d="M6.37748 11.9258L6.373 11.9234L6.3576 11.9151C6.34451 11.908 6.32585 11.8978 6.30198 11.8845C6.25425 11.858 6.18567 11.8193 6.09921 11.769C5.92637 11.6684 5.68162 11.5209 5.38886 11.3307C4.80464 10.9512 4.02276 10.3972 3.23782 9.70154C1.70373 8.34184 0 6.30128 0 3.85673C0 1.72672 1.67893 0 3.75 0C4.92867 0 5.97952 0.559121 6.66667 1.43263C7.35381 0.559121 8.40466 0 9.58333 0C11.6544 0 13.3333 1.72672 13.3333 3.85673C13.3333 6.30128 11.6296 8.34184 10.0955 9.70154C9.31058 10.3972 8.5287 10.9512 7.94447 11.3307C7.65172 11.5209 7.40696 11.6684 7.23412 11.769C7.14766 11.8193 7.07908 11.858 7.03135 11.8845C7.00749 11.8978 6.98882 11.908 6.97574 11.9151L6.96033 11.9234L6.95585 11.9258L6.95443 11.9265C6.775 12.0244 6.55833 12.0244 6.37941 11.9268L6.37748 11.9258Z" fill="currentColor"/>
</svg>
