<svg width="28" height="28" viewBox="0 0 28 28" fill="none" xmlns="http://www.w3.org/2000/svg">
<g transform="translate(1.75, 2.625)"><path id="Union (Stroke)" fill-rule="evenodd" clip-rule="evenodd" d="M3.90642 0.607837C6.63019 0.207349 9.41632 0 12.2503 0C15.0841 0 17.87 0.207312 20.5935 0.60773C22.9016 0.947065 24.5 2.96852 24.5 5.23898V12.261C24.5 14.5315 22.9016 16.553 20.5935 16.8923C18.331 17.2249 16.0255 17.4243 13.6852 17.4823C13.5644 17.4852 13.4538 17.5336 13.3745 17.613L8.49372 22.4937C8.24347 22.744 7.86712 22.8188 7.54015 22.6834C7.21319 22.548 7 22.2289 7 21.875V17.2608C5.96051 17.1657 4.92906 17.0425 3.90641 16.8921C1.59838 16.5528 0 14.5313 0 12.2609V5.23908C0 2.96864 1.59839 0.947198 3.90642 0.607837Z" fill="#000000"/></g>
</svg>
