<svg width="20" height="20" viewBox="0 0 20 20" fill="none" xmlns="http://www.w3.org/2000/svg">
  <g transform="translate(0.834, 0.834)">
    <path d="M9.16667 17.5C13.769 17.5 17.5 13.769 17.5 9.16667C17.5 4.56429 13.769 0.833333 9.16667 0.833333C4.56429 0.833333 0.833333 4.56429 0.833333 9.16667C0.833333 13.769 4.56429 17.5 9.16667 17.5Z" stroke="currentColor" stroke-width="1.66667" stroke-linecap="round" stroke-linejoin="round"/>
  </g>
  <g transform="translate(6.742, 4.997)">
    <path d="M0.83356 2.50373C1.02948 1.94679 1.41619 1.47715 1.92519 1.17801C2.43419 0.878864 3.03264 0.769513 3.61454 0.869325C4.19644 0.969136 4.72424 1.27167 5.10446 1.72334C5.48468 2.17501 5.69277 2.74667 5.69189 3.33706C5.69189 5.00373 3.19189 5.83706 3.19189 5.83706" stroke="currentColor" stroke-width="1.66667" stroke-linecap="round" stroke-linejoin="round"/>
  </g>
  <g transform="translate(9.17, 13.336)">
    <path d="M0.833333 0.833333H0.841667" stroke="currentColor" stroke-width="1.66667" stroke-linecap="round" stroke-linejoin="round"/>
  </g>
</svg>
