<svg width="28" height="28" viewBox="0 0 28 28" fill="none" xmlns="http://www.w3.org/2000/svg">
<g transform="translate(2.625, 3.5)"><g id="Union">
<path d="M0.0269165 3.06277C0.952442 2.24576 2.16826 1.75 3.49987 1.75H19.2499C20.5815 1.75 21.7973 2.24576 22.7228 3.06278C22.5077 1.33613 21.0348 0 19.2499 0H3.49987C1.71494 0 0.242087 1.33613 0.0269165 3.06277Z" fill="#000000"/>
<path d="M0.0269166 6.56277C0.952443 5.74576 2.16826 5.25 3.49987 5.25H19.2499C20.5815 5.25 21.7973 5.74576 22.7228 6.56278C22.5077 4.83613 21.0348 3.5 19.2499 3.5H3.49987C1.71494 3.5 0.242087 4.83613 0.0269166 6.56277Z" fill="#000000"/>
<path d="M3.5 7C1.567 7 0 8.567 0 10.5V17.5C0 19.433 1.567 21 3.5 21H19.25C21.183 21 22.75 19.433 22.75 17.5V10.5C22.75 8.567 21.183 7 19.25 7H14.875C14.3918 7 14 7.39175 14 7.875C14 9.32475 12.8247 10.5 11.375 10.5C9.92525 10.5 8.75 9.32475 8.75 7.875C8.75 7.39175 8.35825 7 7.875 7H3.5Z" fill="#000000"/>
</g></g>
</svg>
