<svg width="40" height="40" viewBox="0 0 40 40" fill="none" xmlns="http://www.w3.org/2000/svg">
<path d="M20.0001 3.33301C24.3528 3.33301 28.5156 4.9523 31.753 7.78288L32.3878 8.36556L32.4122 8.38835L33.3334 9.30957V4.99967C33.3334 4.0792 34.0796 3.33301 35.0001 3.33301C35.9206 3.33301 36.6667 4.0792 36.6667 4.99967V13.333C36.6667 13.775 36.491 14.1988 36.1785 14.5114C35.8659 14.824 35.4421 14.9997 35.0001 14.9997H26.6667C25.7463 14.9997 25.0001 14.2535 25.0001 13.333C25.0001 12.4125 25.7463 11.6663 26.6667 11.6663H30.9766L30.0782 10.7679L29.559 10.291C26.9119 7.97661 23.5221 6.66634 20.0001 6.66634C17.363 6.66634 14.7855 7.44898 12.5929 8.91406C10.4003 10.3791 8.69155 12.4609 7.68237 14.8971C6.67326 17.3334 6.40792 20.0143 6.92228 22.6006C7.43675 25.187 8.70667 27.5637 10.5714 29.4284C12.4361 31.2931 14.8128 32.563 17.3992 33.0775C19.9855 33.5918 22.6664 33.3265 25.1026 32.3174C27.5388 31.3082 29.6207 29.5994 31.0857 27.4069C32.5508 25.2142 33.3334 22.6368 33.3334 19.9997C33.3334 19.0792 34.0796 18.333 35.0001 18.333C35.9206 18.333 36.6667 19.0792 36.6667 19.9997C36.6667 23.296 35.6889 26.5183 33.8575 29.2591C32.0262 31.9998 29.424 34.137 26.3787 35.3984C23.3332 36.6599 19.9811 36.9888 16.7481 36.3457C13.5153 35.7025 10.5453 34.1159 8.2146 31.7852C5.88385 29.4544 4.2972 26.4844 3.65405 23.2516C3.01096 20.0186 3.33986 16.6665 4.60132 13.6211C5.86276 10.5758 7.99994 7.97357 10.7406 6.14225C13.4815 4.3109 16.7037 3.33301 20.0001 3.33301Z" fill="currentColor"/>
</svg>
