<svg width="25.6667" height="16.3333" viewBox="0 0 25.6667 16.3333" fill="none" xmlns="http://www.w3.org/2000/svg">
<path d="M16.3333 3.5C16.3333 2.85567 15.811 2.33333 15.1667 2.33333H3.5C2.85567 2.33333 2.33333 2.85567 2.33333 3.5V12.8333C2.33333 13.4777 2.85567 14 3.5 14H15.1667C15.811 14 16.3333 13.4777 16.3333 12.8333V3.5ZM19.6032 8.16667L23.3333 10.6527V5.67953L19.6032 8.16667ZM18.6667 5.986L23.8529 2.5293C24.2108 2.29068 24.671 2.26831 25.0503 2.47119C25.4296 2.67421 25.6667 3.06974 25.6667 3.5V12.8333C25.6667 13.2636 25.4296 13.6591 25.0503 13.8621C24.671 14.065 24.2108 14.0427 23.8529 13.804L18.6667 10.3462V12.8333C18.6667 14.7663 17.0997 16.3333 15.1667 16.3333H3.5C1.567 16.3333 0 14.7663 0 12.8333V3.5C0 1.567 1.567 0 3.5 0H15.1667C17.0997 0 18.6667 1.567 18.6667 3.5V5.986Z" fill="currentColor"/>
</svg>
