<svg width="24" height="24" viewBox="0 0 24 24" fill="none" xmlns="http://www.w3.org/2000/svg">
<g clip-path="url(#clip0_1579_239)">
<path d="M15.3965 0.413086C17.2385 0.507248 18.708 2.0375 18.708 3.89941V7.15625L18.8916 7.1709L19.1035 7.18848C21.1928 7.36192 22.8408 9.11659 22.8408 11.249V19.5156L22.8359 19.7256C22.7261 21.877 20.942 23.5927 18.7637 23.5928H5.23633C2.98774 23.5925 1.15946 21.7642 1.15918 19.5156V6.0166C1.16009 6.01059 1.16118 6.00337 1.16211 5.99609C1.16441 5.97801 1.16694 5.95302 1.16699 5.9248V5.90527L1.16504 5.88574C1.16088 5.83593 1.1592 5.81523 1.15918 5.79297L1.17285 5.47461C1.31379 3.90102 2.49033 2.60172 4.07227 2.32227L14.6123 0.461914L14.6406 0.456055C14.8248 0.423493 15.0183 0.408303 15.2148 0.408203L15.3965 0.413086ZM3.30176 19.5156C3.30206 20.5841 4.168 21.4499 5.23633 21.4502H18.7637C19.8321 21.4501 20.6989 20.5843 20.6992 19.5156V11.2422L20.6963 11.1523V11.1494L20.6768 10.96C20.5373 10.0282 19.7343 9.3136 18.7637 9.31348H4.68457C4.46651 9.31347 4.2537 9.29168 4.04492 9.25195L3.83691 9.20605L3.30176 9.0752V19.5156ZM15.8906 14.0859C16.5477 14.1526 17.0604 14.7073 17.0605 15.3818C17.0604 16.1012 16.4773 16.6844 15.7578 16.6846C15.0383 16.6846 14.4552 16.1013 14.4551 15.3818C14.4552 14.6623 15.0383 14.0791 15.7578 14.0791L15.8906 14.0859ZM15.0117 2.56836H14.998L14.9766 2.57324L4.95117 4.3418V4.33691L4.44141 4.42969C3.78512 4.54935 3.3019 5.11532 3.30176 5.78906L3.30957 5.93066C3.3809 6.62925 3.97265 7.17178 4.68457 7.17188H16.5654V3.89941C16.5654 3.15296 15.9577 2.55 15.2168 2.5498C15.1359 2.5498 15.0573 2.56162 15.0117 2.56836Z" fill="#F4F4F5"/>
</g>
<defs>
<clipPath id="clip0_1579_239">
<rect width="24" height="24" fill="white"/>
</clipPath>
</defs>
</svg>
