<svg width="120" height="28" viewBox="0 0 120 28" xmlns="http://www.w3.org/2000/svg">
  <g>
    <path d="M3.4228 5.98354C1.56855 8.14357 1.51965 11.1503 3.31749 12.6932C5.11533 14.2398 8.07537 13.7393 9.93338 11.5755C11.7876 9.4155 11.8365 6.40878 10.0387 4.8659C9.33536 4.26004 8.44772 3.97028 7.52248 3.97028C6.08571 3.97028 4.55115 4.67022 3.4228 5.98354Z" fill="currentColor"/>
    <path d="M2.88491 17.16C1.48951 18.8158 2.09506 21.6268 4.23893 23.4369C6.38279 25.2469 9.25632 25.3749 10.6517 23.7191C12.0471 22.0633 11.4416 19.2523 9.2977 17.4422C8.16183 16.4826 6.82285 15.9972 5.60799 15.9972C4.52854 15.9972 3.54311 16.381 2.88867 17.16" fill="currentColor"/>
    <path d="M15.4735 23.2186C12.9573 24.0126 11.2234 25.6307 11.5995 26.8312C11.9794 28.0316 14.3263 28.3627 16.8426 27.565C19.3588 26.7709 21.0927 25.1528 20.7166 23.9524C20.4759 23.196 19.4528 22.7821 18.0988 22.7821C17.3052 22.7821 16.4025 22.9213 15.4735 23.2148" fill="currentColor"/>
    <path d="M11.5356 1.54288C11.0165 3.04059 12.6639 4.97483 15.2215 5.86669C17.7791 6.75855 20.2727 6.26558 20.7918 4.76786C21.3108 3.27014 19.6634 1.3359 17.1058 0.444047C16.2445 0.142998 15.387 0 14.6122 0C13.0889 0 11.8778 0.549414 11.5356 1.54288Z" fill="currentColor"/>
    <path d="M23.0335 4.56129C22.2925 4.85858 22.4693 7.02236 23.4246 9.3856C24.38 11.7526 25.7528 13.4272 26.4938 13.1299C27.2309 12.8326 27.0579 10.6726 26.1026 8.30558C25.2225 6.12298 23.9851 4.52742 23.2178 4.52742C23.1538 4.52742 23.0937 4.53871 23.0335 4.56129Z" fill="currentColor"/>
    <path d="M23.6014 18.94C22.5482 21.2242 22.1834 23.3052 22.789 23.5837C23.3945 23.8621 24.741 22.2365 25.7941 19.9523C26.851 17.6681 27.2121 15.5871 26.6103 15.3086C26.5652 15.286 26.5163 15.2785 26.4599 15.2785C25.8017 15.2785 24.5755 16.8289 23.6014 18.94Z" fill="currentColor"/>
    <path d="M40.2614 21.0939C40.4357 21.8006 41.8122 21.8603 41.8287 22.2568C41.8106 22.5546 41.5396 22.4963 41.1865 22.4963C39.2215 22.5125 35.3025 22.5289 35.3025 22.5289C35.3025 22.5289 35.0521 22.5592 34.9747 22.3458C34.9239 22.2063 35.0577 22.1099 35.257 22.0332C35.4563 21.9565 35.6395 21.882 35.833 21.7721C36.0266 21.6621 36.3298 21.2704 36.3772 20.8322C36.4615 20.0438 36.5149 19.2847 36.514 18.4627L36.5054 9.68068C36.5054 8.94993 36.4839 8.26651 36.4193 7.55383C36.3694 7.00124 36.3218 6.56485 36.063 6.33985C35.8041 6.11485 35.4402 5.99499 35.2534 5.9399C35.0666 5.88481 34.8888 5.77872 34.9127 5.63094C34.9365 5.48315 35.0337 5.36786 35.2534 5.36757C37.3436 5.36757 38.5744 5.38253 40.4388 5.38253C41.8159 5.35576 43.9049 5.32686 45.2167 5.85217C46.717 6.41078 47.4117 7.90348 47.5443 9.48463C47.7896 12.4145 46.3546 14.4749 43.5108 15.0396C41.5544 15.4277 40.327 15.0869 40.327 15.0869C40.327 15.0869 40.0458 15.0091 40.0458 15.0396C40.0458 15.0396 40.0433 17.5713 40.0458 18.3059C40.0482 19.0405 40.0871 20.3872 40.2614 21.0939ZM43.7389 12.2069C44.2631 10.6215 44.2906 7.74147 42.6785 6.72409C41.9764 6.28071 41.1907 6.07345 40.4032 6.24087C40.3311 6.2662 40.1714 6.34268 40.1456 6.47018C39.9081 7.64155 40.0458 13.794 40.0458 13.8542C40.0458 13.9192 40.2053 14.0697 40.3993 14.1315C42.0829 14.5197 43.1691 13.9327 43.7389 12.2069Z" fill="currentColor"/>
    <path d="M106.399 22.8237C105.038 22.995 103.733 22.7944 102.593 22.0834C101.452 21.3725 100.58 20.2096 100.171 18.8772C99.3872 16.32 100.104 13.3669 102.337 11.7565C104.669 10.0755 108.04 10.3948 109.953 12.6981C110.942 13.8902 111.375 15.3801 111.36 16.9337C111.331 19.8516 109.407 22.4458 106.4 22.8245L106.399 22.8237ZM104.812 21.6832C105.678 22.327 106.796 22.0834 107.332 21.1995C107.58 20.7898 107.765 20.368 107.869 19.88C108.246 18.1146 108.233 16.3028 107.854 14.5357C107.637 13.5227 107.109 12.1317 106.109 11.6876C105.402 11.3726 104.593 11.6273 104.11 12.2161C103.272 13.2386 103.124 14.9816 103.112 16.277C103.1 17.9029 103.396 20.6331 104.811 21.6841L104.812 21.6832Z" fill="currentColor"/>
    <path d="M52.2203 22.9279C50.5979 22.909 49.1587 22.2936 48.1121 21.0998C46.2125 18.9325 46.1066 15.5059 47.7161 13.169C48.4856 12.0518 49.5607 11.3021 50.85 10.9441C53.4357 10.2262 56.0979 11.3744 57.3339 13.7595C57.8658 14.7863 58.0793 15.9096 58.0423 17.0905C57.9407 20.3354 55.6168 22.9675 52.2203 22.9279ZM53.835 21.5267C54.75 20.5231 54.8421 18.5451 54.8421 17.2678C54.8421 15.9905 54.6656 14.6366 54.206 13.3928C54.0278 12.9108 53.7679 12.4985 53.4236 12.1362C52.6756 11.3495 51.4715 11.4183 50.7941 12.2842C49.5908 13.8223 49.7354 17.3169 50.1296 19.1562C50.3078 19.9877 50.6254 20.7322 51.1436 21.3726C51.8235 22.2144 53.0845 22.3495 53.835 21.5267Z" fill="currentColor"/>
    <path d="M62.0877 5.02947C62.1726 4.99336 62.3708 4.97151 62.4455 5.0051C62.5354 5.04541 62.5749 5.24698 62.5749 5.40067L62.5788 10.4664L62.578 19.8969C62.578 20.2893 62.6073 20.6267 62.6555 20.9839C62.7433 21.6338 62.9332 21.7877 63.3782 21.9297C63.4376 21.9487 63.6913 22.0351 63.7482 22.1355C63.8051 22.2359 63.7401 22.3607 63.6974 22.4017C63.6548 22.4427 63.5624 22.4872 63.5074 22.4872C62.8406 22.4872 60.3027 22.4873 58.3942 22.4975C58.3041 22.4975 58.1488 22.4471 58.1109 22.299C58.0724 22.1188 58.2949 22.0273 58.44 21.9791C58.5851 21.9309 58.9474 21.8173 59.1196 21.6193C59.2918 21.4213 59.3433 21.1219 59.3562 20.8193C59.3815 20.2249 59.371 19.8469 59.3718 19.2995V10.978C59.3718 10.8224 59.3754 10.3808 59.3764 10.1154C59.3743 9.26883 59.3532 8.72656 59.3036 7.99495C59.2205 6.77553 57.9944 7.24915 57.8919 6.83514C57.8675 6.73688 58.0011 6.53531 58.1128 6.5017C59.496 6.09102 60.7616 5.59636 62.0877 5.02947Z" fill="currentColor"/>
    <path d="M67.9348 4.98643C68.0189 4.95069 68.2155 4.92909 68.2896 4.96234C68.3787 5.00226 68.4179 5.20173 68.4179 5.35383L68.4218 10.3676L68.4217 15.7797C68.4217 15.8297 68.4906 15.9321 68.5285 15.9579C68.5664 15.9837 68.6997 15.9596 68.7488 15.914C69.7154 15.0034 70.7423 14.0333 71.6572 13.0581C71.8861 12.8145 72.054 12.4849 71.9447 12.1888C71.7415 11.6388 70.8206 11.9564 70.8145 11.3832C70.812 11.125 71.0177 10.9648 71.2974 10.9846C72.7865 11.0905 74.2437 11.0862 75.7319 10.9752C75.9729 10.9571 76.1373 11.1232 76.1562 11.3315C76.219 12.0123 74.9056 11.6276 73.5035 12.7268C72.8287 13.2552 72.2304 13.8405 71.615 14.4293C71.4326 14.604 71.399 14.7951 71.5548 15.0378L75.1741 20.6627L75.1733 20.6601C75.7996 21.5207 75.8143 21.6392 76.2271 21.7876C76.6398 21.936 76.7882 22.0647 76.7882 22.2131C76.7882 22.3884 76.6626 22.4611 76.6106 22.4604C75.6146 22.4465 74.6016 22.4389 73.7107 22.4604L72.426 22.4983C72.0378 22.5291 72.0197 22.4393 72.0378 22.3263C72.0631 22.1678 72.1314 21.952 72.0378 21.7584C71.951 21.579 71.6168 21.1102 71.5247 20.9639L69.5682 17.8739C69.366 17.5546 68.9184 16.7765 68.5973 16.9693C68.4811 17.039 68.4269 17.1905 68.4278 17.3497C68.4364 18.5031 68.4037 19.6255 68.4811 20.7573C68.5749 22.1276 69.7382 21.9015 69.7479 22.1938C69.7577 22.4862 69.6515 22.5056 69.3792 22.4968C67.559 22.4851 65.9967 22.4851 64.1591 22.4851C64.0587 22.4851 63.9802 22.3803 63.9802 22.2433C63.9802 22.1063 64.1307 22.0407 64.2639 21.9822C64.3971 21.9236 64.728 21.8359 64.9686 21.5999C65.2093 21.3639 65.2379 20.7401 65.237 19.8613L65.225 10.7617C65.2248 10.6382 65.231 10.0223 65.2312 9.83333C65.2259 8.96167 65.2096 8.45243 65.1736 7.92156C65.0912 6.7146 63.8751 7.18338 63.7735 6.77359C63.7493 6.67633 63.8818 6.47684 63.9925 6.44359C65.3644 6.03712 66.6196 5.54752 67.9348 4.98643Z" fill="currentColor"/>
    <path d="M115.077 7.04974C115.18 7.02651 115.402 7.16992 115.404 7.28527L115.455 11.079L118.193 11.0918C118.445 11.2032 118.474 11.9881 118.14 11.9922L115.466 12.0226V13.0187L115.465 18.9105C115.465 19.4148 115.495 19.8891 115.586 20.3608C115.693 20.9194 116.218 21.2275 116.75 21.0803C117.656 20.829 117.912 20.1258 118.273 20.6474C118.374 20.7937 118.365 21.0244 118.225 21.1853C117.172 22.3981 115.61 23.2321 113.995 22.7347C112.635 22.3155 112.343 20.8393 112.343 19.5672L112.343 12.7771L112.34 11.9633L110.992 11.9113C110.91 11.9081 110.818 11.6517 110.86 11.5868C111.079 11.2448 113.371 10.2586 114.757 7.27323C114.799 7.18432 114.989 7.06978 115.077 7.04974Z" fill="currentColor"/>
    <path fill-rule="evenodd" clip-rule="evenodd" d="M98.2358 4.9866C98.3198 4.95087 98.5159 4.92927 98.5899 4.96251C98.6789 5.00242 98.718 5.20192 98.718 5.35403L98.7334 10.3676L98.7341 10.6251L98.7346 10.7923L98.7356 19.02C98.7356 19.9921 98.7408 19.8883 98.7719 20.287C98.803 20.6858 98.9187 20.9617 99.0918 21.1748C99.3441 21.4853 100.018 21.2684 100.112 21.4882C100.155 21.5896 100.154 21.7805 99.9018 21.8531L96.2593 22.8681C96.037 22.9398 95.931 22.873 95.8728 22.8049C95.6806 22.5785 95.8298 22.1716 95.6985 21.6409C95.6818 21.5734 95.6268 21.5147 95.5692 21.5536C95.1268 21.8523 94.7661 22.1157 94.3289 22.3678C92.8224 23.2398 90.9965 22.9822 89.7423 21.7499L89.7145 21.7223C88.828 20.834 88.2934 19.7607 88.0447 18.5462C87.5309 16.0372 88.1325 13.3423 90.1983 11.7C90.83 11.1982 91.5763 10.8961 92.3742 10.7584C93.3872 10.5845 94.3332 10.7825 95.2318 11.249C95.36 11.3161 95.564 11.0734 95.5649 10.94C95.565 10.9004 95.5653 10.8572 95.5657 10.8121C95.5657 10.806 95.5657 10.7998 95.5658 10.7937C95.5661 10.7624 95.5664 10.7302 95.5667 10.6976C95.5744 9.73326 95.5419 8.8318 95.4803 7.92172C95.398 6.7148 94.1844 7.18358 94.0829 6.77379C94.0589 6.67653 94.191 6.47705 94.3016 6.44379C95.6706 6.03732 96.9233 5.54769 98.2358 4.9866ZM94.2359 11.6544C93.4337 11.4401 92.635 11.7663 92.122 12.4316C91.6641 13.0272 91.4463 13.7434 91.3163 14.5025C91.0624 15.9812 91.1106 17.472 91.4575 18.9335C91.7278 20.0731 92.4499 21.3806 93.7427 21.3978C94.6835 21.4098 95.558 20.8332 95.5545 19.7495L95.5322 13.2898C95.5296 12.4738 94.9968 11.8575 94.2359 11.6544Z" fill="currentColor"/>
    <path fill-rule="evenodd" clip-rule="evenodd" d="M81.6045 10.7029C82.1781 10.7029 82.7011 10.7535 83.1734 10.8548C83.6458 10.956 84.0507 11.0657 84.3881 11.1837C84.7424 11.285 85.0208 11.3356 85.2232 11.3356C85.3919 11.3356 85.5522 11.3018 85.704 11.2344C85.8559 11.15 85.9993 11.0488 86.1342 10.9307C86.2017 10.8969 86.2608 10.8632 86.3114 10.8294C86.3788 10.7957 86.4379 10.7789 86.4885 10.7789C86.6403 10.7789 86.7585 10.8126 86.8428 10.8801C86.9272 10.9475 86.9693 11.015 86.9693 11.0825C86.9693 11.2512 86.9187 11.5633 86.8175 12.0188C86.7332 12.4743 86.691 13.0732 86.691 13.8155L86.7003 19.011L86.7012 19.0104C86.7014 19.9244 86.7262 20.152 86.731 20.2248C86.7573 20.624 86.8842 20.8977 87.0573 21.1108C87.3096 21.4214 87.9836 21.2044 88.0777 21.4242C88.1209 21.5257 88.1191 21.7165 87.8674 21.7891L84.2249 22.8041C84.0025 22.8758 83.8966 22.8091 83.8384 22.7409C83.6462 22.5146 83.7954 22.1076 83.6641 21.5769C83.6583 21.5533 83.6478 21.5308 83.6341 21.5132C83.6096 21.4816 83.5639 21.4802 83.5308 21.5025C83.4566 21.5526 83.3981 21.6005 83.3278 21.6487L83.3102 21.66C83.1425 21.7805 83.02 21.8576 82.7872 21.9973C82.1865 22.3244 81.8118 22.457 81.4238 22.5919C81.0526 22.7269 80.6983 22.7944 80.3609 22.7944C79.4499 22.7944 78.9435 22.5666 78.2181 22.1111C77.5096 21.6387 76.9444 21.0145 76.5226 20.2385C76.1009 19.4455 75.89 18.5514 75.89 17.556C75.89 16.4932 75.8661 15.1213 76.5733 13.8155C77.146 12.758 77.7457 12.1369 78.6736 11.5633C79.6015 10.9897 80.5567 10.7029 81.6045 10.7029ZM81.492 11.6351C81.0534 11.6351 80.6654 11.8292 80.328 12.2172C79.9905 12.6052 79.627 13.2841 79.4246 13.9421C79.239 14.5832 79.1462 15.3002 79.1462 16.0931C79.1462 16.6667 79.2053 17.9862 79.3234 18.4924C79.3434 18.9985 79.6102 19.454 79.8295 19.8589C80.0657 20.2469 80.3441 20.5506 80.6646 20.7699C80.9851 20.9892 81.3563 21.0989 81.7781 21.0989C82.1323 21.0989 82.3041 21.0613 82.6167 20.947C82.801 20.8797 83.0544 20.7062 83.2414 20.5476C83.372 20.4369 83.4318 20.2696 83.4478 20.099C83.4684 19.8794 83.5024 19.6197 83.5024 19.3021V14.5747C83.5024 13.765 83.1925 12.7889 82.8874 12.4196C82.5824 12.0504 82.1162 11.6351 81.492 11.6351Z" fill="currentColor"/>
  </g>
</svg>
