<svg width="20" height="24" viewBox="0 0 20 24" fill="none" xmlns="http://www.w3.org/2000/svg">
<path d="M13.7915 23.3036C9.60731 23.3063 6.59626 23.0793 3.40816 19.903C1.20654 17.7173 -0.0218437 14.737 0.000119143 11.6345C-0.00887237 8.53324 1.23316 5.558 3.44421 3.38402C6.67009 0.177018 9.84908 -0.00278008 14.0769 1.38148e-05L19.3759 0.0105267L19.3774 0.0285511L19.3744 0.02705L19.3714 7.77888L19.3774 7.78038L19.3774 7.7939L19.3729 7.7939L19.3729 7.79089C17.367 7.79561 15.3529 7.76707 13.3469 7.76536C11.4934 7.76385 10.3293 7.66065 8.85141 8.95194C7.4316 10.4795 7.33476 12.8825 8.8439 14.3742C9.38509 14.9001 10.0641 15.2636 10.801 15.4241C11.622 15.6105 15.5241 15.5844 17.904 15.5653L17.904 15.5683L19.3774 15.5683L19.3774 23.2855L19.3744 23.2855C19.2238 23.2896 19.0724 23.2918 18.9208 23.2931L13.7915 23.3036Z" fill="white"/>
</svg>
