<svg width="28" height="28" viewBox="0 0 28 28" fill="none" xmlns="http://www.w3.org/2000/svg">
<g transform="translate(2.625, 2.654)"><g id="Subtract">
<path d="M22.7167 12.2218C22.7388 11.9323 22.75 11.6398 22.75 11.3447C22.75 9.56653 22.342 7.88363 21.6144 6.38455C20.1712 7.75462 18.4533 8.83817 16.552 9.5441C16.6003 10.1379 16.625 10.7384 16.625 11.3447C16.625 12.6295 16.5142 13.8883 16.3018 15.1123C18.6273 14.5271 20.792 13.5372 22.7167 12.2218Z" fill="#000000"/>
<path d="M14.4484 15.4865C14.728 14.1499 14.875 12.7645 14.875 11.3447C14.875 10.9149 14.8615 10.4883 14.835 10.0652C13.7247 10.3297 12.5662 10.4697 11.375 10.4697C10.1838 10.4697 9.02527 10.3297 7.91502 10.0652C7.88847 10.4883 7.875 10.9149 7.875 11.3447C7.875 12.7645 8.02201 14.1499 8.30165 15.4865C9.30367 15.6401 10.33 15.7197 11.375 15.7197C12.42 15.7197 13.4463 15.6401 14.4484 15.4865Z" fill="#000000"/>
<path d="M8.77594 17.3169C9.62824 17.4178 10.4956 17.4697 11.375 17.4697C12.2544 17.4697 13.1218 17.4178 13.9741 17.3169C13.3746 19.2485 12.4921 21.0555 11.375 22.6894C10.2579 21.0555 9.37536 19.2485 8.77594 17.3169Z" fill="#000000"/>
<path d="M6.44823 15.1123C6.23575 13.8883 6.125 12.6295 6.125 11.3447C6.125 10.7384 6.14967 10.1379 6.19805 9.5441C4.29667 8.83817 2.57879 7.75462 1.13555 6.38455C0.408023 7.88363 0 9.56653 0 11.3447C0 11.6398 0.0112415 11.9323 0.0333142 12.2218C1.95797 13.5372 4.12269 14.5271 6.44823 15.1123Z" fill="#000000"/>
<path d="M22.2904 14.556C21.1054 18.5903 17.7447 21.6937 13.5655 22.509C14.5763 20.8091 15.3633 18.9606 15.8858 17.0041C18.1723 16.5248 20.3275 15.6884 22.2904 14.556Z" fill="#000000"/>
<path d="M0.459608 14.556C2.42249 15.6884 4.57767 16.5248 6.86415 17.0041C7.38671 18.9606 8.17369 20.8091 9.18449 22.509C5.00532 21.6937 1.64458 18.5903 0.459608 14.556Z" fill="#000000"/>
<path d="M13.5655 0.180455C16.5073 0.754333 19.0436 2.46204 20.7009 4.83013C19.466 6.07712 17.9827 7.07774 16.3313 7.75167C15.8807 5.02477 14.9258 2.46802 13.5655 0.180455Z" fill="#000000"/>
<path d="M11.375 0C13.0418 2.43786 14.1863 5.26107 14.6475 8.30849C13.6014 8.57696 12.5049 8.71973 11.375 8.71973C10.2451 8.71973 9.14864 8.57696 8.10254 8.30849C8.56368 5.26107 9.70822 2.43786 11.375 0Z" fill="#000000"/>
<path d="M9.18449 0.180452C7.82423 2.46802 6.86928 5.02476 6.41867 7.75167C4.76733 7.07774 3.28404 6.07712 2.04907 4.83013C3.70637 2.46204 6.24266 0.75433 9.18449 0.180452Z" fill="#000000"/>
</g></g>
</svg>
