<svg width="16" height="16" viewBox="0 0 16 16" fill="none" xmlns="http://www.w3.org/2000/svg">
<g clip-path="url(#clip0_1_187)">
<path d="M8.00172 13C12.6955 13 16 9.18429 16 8.00374C16 6.819 12.6785 3.00751 8.00172 3.00751C3.3637 3.00751 0 6.819 0 8.00374C0 9.18429 3.34681 13 8.00172 13ZM8.00172 12.2611C3.9488 12.2611 0.820798 8.8659 0.820798 8.00374C0.820798 7.22604 3.9488 3.73972 8.00172 3.73972C12.0469 3.73972 15.1749 7.22604 15.1749 8.00374C15.1749 8.8659 12.0469 12.2611 8.00172 12.2611ZM8.00172 11.2972C9.84613 11.2972 11.3442 9.81588 11.3442 7.99204C11.3442 6.16819 9.84613 4.68689 8.00172 4.68689C6.15721 4.68689 4.65915 6.16819 4.65915 7.99204C4.65915 9.81588 6.15721 11.2972 8.00172 11.2972ZM8.00172 9.05316C7.41188 9.05316 6.93278 8.57941 6.93278 7.99621C6.93278 7.41302 7.41188 6.93927 8.00172 6.93927C8.59237 6.93927 9.06722 7.41302 9.06722 7.99621C9.06722 8.57941 8.59237 9.05316 8.00172 9.05316Z" fill="black" fill-opacity="0.85"/>
</g>
<defs>
<clipPath id="clip0_1_187">
<rect width="16" height="10" fill="white" transform="translate(0 3)"/>
</clipPath>
</defs>
</svg>
