<svg width="16.6666" height="16.6667" viewBox="0 0 16.6666 16.6667" fill="none" xmlns="http://www.w3.org/2000/svg">
<path d="M0 14.1667V2.5C0 1.83696 0.263581 1.20126 0.732422 0.732422C1.20126 0.263581 1.83696 0 2.5 0H5.83333C6.29357 0 6.66667 0.373096 6.66667 0.833333C6.66667 1.29357 6.29357 1.66667 5.83333 1.66667H2.5C2.27899 1.66667 2.06709 1.75453 1.91081 1.91081C1.75453 2.06709 1.66667 2.27899 1.66667 2.5V14.1667C1.66667 14.3877 1.75453 14.5996 1.91081 14.7559C2.06709 14.9121 2.27899 15 2.5 15H5.83333C6.29357 15 6.66667 15.3731 6.66667 15.8333C6.66667 16.2936 6.29357 16.6667 5.83333 16.6667H2.5C1.83696 16.6667 1.20126 16.4031 0.732422 15.9342C0.263581 15.4654 0 14.8297 0 14.1667ZM11.0775 3.57747C11.4029 3.25204 11.9304 3.25204 12.2559 3.57747L16.4225 7.74414C16.748 8.06958 16.748 8.59709 16.4225 8.92253L12.2559 13.0892C11.9304 13.4146 11.4029 13.4146 11.0775 13.0892C10.752 12.7638 10.752 12.2362 11.0775 11.9108L13.8216 9.16667H5.83333C5.3731 9.16667 5 8.79357 5 8.33333C5 7.8731 5.3731 7.5 5.83333 7.5H13.8216L11.0775 4.75586C10.752 4.43042 10.752 3.90291 11.0775 3.57747Z" fill="currentColor"/>
</svg>
