<svg width="20" height="20" viewBox="0 0 20 20" fill="none" xmlns="http://www.w3.org/2000/svg">
<path d="M7.49984 11.4583C5.54984 11.4583 1.6665 12.4333 1.6665 14.375V15.8333H13.3332V14.375C13.3332 12.4333 9.44984 11.4583 7.49984 11.4583ZM3.6165 14.1666C4.3165 13.6833 6.00817 13.125 7.49984 13.125C8.9915 13.125 10.6832 13.6833 11.3832 14.1666H3.6165ZM7.49984 9.99996C9.10817 9.99996 10.4165 8.69163 10.4165 7.08329C10.4165 5.47496 9.10817 4.16663 7.49984 4.16663C5.8915 4.16663 4.58317 5.47496 4.58317 7.08329C4.58317 8.69163 5.8915 9.99996 7.49984 9.99996ZM7.49984 5.83329C8.1915 5.83329 8.74984 6.39163 8.74984 7.08329C8.74984 7.77496 8.1915 8.33329 7.49984 8.33329C6.80817 8.33329 6.24984 7.77496 6.24984 7.08329C6.24984 6.39163 6.80817 5.83329 7.49984 5.83329ZM13.3665 11.5083C14.3332 12.2083 14.9998 13.1416 14.9998 14.375V15.8333H18.3332V14.375C18.3332 12.6916 15.4165 11.7333 13.3665 11.5083ZM12.4998 9.99996C14.1082 9.99996 15.4165 8.69163 15.4165 7.08329C15.4165 5.47496 14.1082 4.16663 12.4998 4.16663C12.0498 4.16663 11.6332 4.27496 11.2498 4.45829C11.7748 5.19996 12.0832 6.10829 12.0832 7.08329C12.0832 8.05829 11.7748 8.96663 11.2498 9.70829C11.6332 9.89163 12.0498 9.99996 12.4998 9.99996Z" fill="white" fill-opacity="0.48"/>
</svg>
