<svg width="18" height="18" viewBox="0 0 18 18" fill="none" xmlns="http://www.w3.org/2000/svg">
<path d="M5.68496 2.8725L4.61246 1.8C2.81246 3.1725 1.62746 5.2875 1.52246 7.6875H3.02246C3.13496 5.7 4.15496 3.96 5.68496 2.8725ZM14.9775 7.6875H16.4775C16.365 5.2875 15.18 3.1725 13.3875 1.8L12.3225 2.8725C13.8375 3.96 14.865 5.7 14.9775 7.6875ZM13.5 8.0625C13.5 5.76 12.27 3.8325 10.125 3.3225V2.8125C10.125 2.19 9.62246 1.6875 8.99996 1.6875C8.37746 1.6875 7.87496 2.19 7.87496 2.8125V3.3225C5.72246 3.8325 4.49996 5.7525 4.49996 8.0625V11.8125L2.99996 13.3125V14.0625H15V13.3125L13.5 11.8125V8.0625ZM8.99996 16.3125C9.10496 16.3125 9.20246 16.305 9.29996 16.2825C9.78746 16.1775 10.185 15.8475 10.38 15.3975C10.455 15.2175 10.4925 15.0225 10.4925 14.8125H7.49246C7.49996 15.6375 8.16746 16.3125 8.99996 16.3125Z" fill="white"/>
</svg>
