<svg width="25.5361" height="25.583" viewBox="0 0 25.5361 25.583" fill="none" xmlns="http://www.w3.org/2000/svg">
<path d="M6.99813 7.59792e-05C7.84334 -0.00549382 8.66193 0.295335 9.30298 0.846593C9.86633 1.33107 10.2596 1.98 10.4286 2.69799L10.4867 3.01017L10.4879 3.02042C10.624 4.05246 10.8761 5.06656 11.2398 6.04191L11.3196 6.27889C11.4851 6.83766 11.5089 7.43014 11.3868 8.00268C11.2472 8.65705 10.923 9.25753 10.4526 9.73331L10.448 9.73901L9.61288 10.573C10.9847 12.7254 12.8109 14.5501 14.9631 15.9221L15.8028 15.0836C16.2785 14.6132 16.8792 14.2889 17.5335 14.1493C18.1867 14.01 18.8665 14.0608 19.4919 14.2952C20.468 14.6594 21.4829 14.912 22.5157 15.0483L22.526 15.0494C23.3759 15.1693 24.1528 15.5977 24.7078 16.2525C25.2565 16.9001 25.5489 17.7253 25.5349 18.5733L25.5361 22.0688C25.538 22.5561 25.4385 23.0384 25.2432 23.4849C25.048 23.9315 24.7616 24.3324 24.4024 24.6619C24.0434 24.9913 23.6199 25.2429 23.1583 25.399C22.6966 25.5551 22.207 25.6126 21.7216 25.5688C21.7146 25.5681 21.707 25.5672 21.7 25.5665C17.9289 25.1566 14.3063 23.8683 11.1236 21.8044C8.16437 19.9221 5.65493 17.4114 3.77385 14.4512C1.70603 11.2562 0.418347 7.61855 0.0163629 3.8339C0.0157343 3.82798 0.0146222 3.8216 0.0140843 3.81567C-0.0296364 3.33186 0.0288375 2.84392 0.183843 2.38354C0.338925 1.92309 0.587738 1.49939 0.915289 1.14054C1.24288 0.78167 1.64204 0.494907 2.08651 0.298579C2.53089 0.102333 3.01122 0.000550396 3.49699 7.59792e-05H6.99813ZM3.49927 2.33341C3.33732 2.33357 3.17688 2.36709 3.02873 2.43253C2.8806 2.49797 2.74826 2.59434 2.63908 2.71394C2.52999 2.83346 2.44698 2.97418 2.39527 3.12752C2.34555 3.27515 2.32562 3.43144 2.33716 3.58666L2.41464 4.22696C2.8201 7.20752 3.83462 10.0727 5.39511 12.6443L5.7369 13.1912L5.7426 13.1991C7.44191 15.8734 9.70952 18.1409 12.3837 19.8402L12.3928 19.8459C15.2645 21.7082 18.5325 22.872 21.9347 23.2445C22.0955 23.2587 22.258 23.2404 22.4109 23.1887C22.5647 23.1367 22.706 23.0524 22.8256 22.9426C22.9452 22.8329 23.0408 22.6994 23.1059 22.5507C23.171 22.4018 23.2034 22.2403 23.2027 22.0779V18.5733C23.2027 18.5638 23.2036 18.5543 23.2039 18.5448C23.211 18.2588 23.112 17.9793 22.927 17.761C22.7442 17.5455 22.4896 17.4029 22.2104 17.3611C21.0033 17.2018 19.818 16.9072 18.6773 16.4815L18.6739 16.4804C18.4654 16.4021 18.2389 16.3851 18.0211 16.4314C17.8029 16.4779 17.602 16.5867 17.4434 16.7436L15.9669 18.2201C15.5955 18.5915 15.0209 18.6689 14.5644 18.4093C11.4612 16.6446 8.89141 14.075 7.12688 10.9718C6.86748 10.5153 6.94586 9.94167 7.31714 9.57039L8.79257 8.09269C8.94939 7.9341 9.05821 7.73431 9.10474 7.51619C9.15127 7.29804 9.13423 7.07101 9.05575 6.86222L9.05461 6.85994C8.63017 5.7225 8.33577 4.54064 8.17619 3.33715L8.15682 3.23234C8.10047 2.99328 7.96952 2.77734 7.78199 2.61596C7.56734 2.43136 7.29262 2.33062 7.00953 2.33341H3.49927Z" fill="currentColor"/>
</svg>
