<svg width="318" height="212" viewBox="0 0 318 212" fill="none" xmlns="http://www.w3.org/2000/svg">
<g clip-path="url(#clip0_11075_59006)">
<rect width="318" height="318" fill="#141414"/>
<path fill-rule="evenodd" clip-rule="evenodd" d="M139.625 46.7028C141.257 42.4762 134.208 35.8276 123.882 31.8527C113.556 27.8778 103.862 28.0818 102.23 32.3084C100.599 36.5349 107.647 43.1836 117.973 47.1585C128.3 51.1334 137.994 50.9294 139.625 46.7028ZM134.734 41.7781C136.613 42.4714 137.778 43.9994 137.337 45.191C136.896 46.3825 135.015 46.7864 133.137 46.0931C131.259 45.3997 130.094 43.8717 130.535 42.6802C130.976 41.4886 132.856 41.0847 134.734 41.7781ZM130.94 37.1403C128.346 35.5343 125.307 34.4165 124.151 34.6435C122.996 34.8706 124.163 36.3565 126.757 37.9626C129.351 39.5686 132.39 40.6864 133.545 40.4594C134.701 40.2323 133.534 38.7463 130.94 37.1403ZM108.887 32.2363C110.765 32.9296 111.93 34.4576 111.489 35.6492C111.048 36.8407 109.168 37.2446 107.29 36.5513C105.411 35.8579 104.246 34.3299 104.687 33.1384C105.129 31.9468 107.009 31.5429 108.887 32.2363ZM115.182 40.2373C112.588 38.6313 109.548 37.5135 108.393 37.7405C107.238 37.9676 108.404 39.4536 110.998 41.0596C113.592 42.6656 116.632 43.7834 117.787 43.5564C118.942 43.3293 117.776 41.8433 115.182 40.2373ZM124.62 43.7223C127.636 44.1873 130.673 45.3124 131.403 46.2352C132.132 47.158 130.278 47.5291 127.262 47.064C124.246 46.599 121.209 45.4739 120.479 44.5511C119.75 43.6283 121.604 43.2572 124.62 43.7223ZM121.458 33.65C120.729 32.7272 117.692 31.6021 114.676 31.137C111.659 30.6719 109.805 31.043 110.535 31.9658C111.265 32.8886 114.301 34.0137 117.318 34.4788C120.334 34.9438 122.188 34.5728 121.458 33.65ZM99.7272 38.3503C99.6379 38.5047 99.5609 38.6655 99.4964 38.8325C97.8648 43.0591 104.913 49.7077 115.24 53.6826C125.566 57.6575 135.26 57.4535 136.891 53.2269C136.921 53.1505 136.948 53.0732 136.972 52.9952C135.464 53.4262 133.815 53.6256 132.137 53.6609C127.636 53.7556 122.152 52.6846 116.657 50.5693C111.161 48.454 106.377 45.5724 103.104 42.4851C101.762 41.2193 100.579 39.8299 99.7272 38.3503ZM217.716 114.846C237.926 106.328 247.394 83.0622 238.863 62.8809C230.333 42.6997 207.034 33.2451 186.824 41.7635C177.141 45.8448 169.924 53.3114 165.97 62.2021C165.26 63.7994 164.453 65.3711 163.536 66.8637C163.631 66.6606 163.724 66.4568 163.815 66.2527C163.29 67.047 162.796 67.8583 162.331 68.6849C160.03 71.9101 157.126 74.6108 153.458 76.1572C147.505 78.6663 140.777 77.6131 134.716 75.3756C125.579 72.0025 115.187 71.9581 105.504 76.0394C85.2941 84.5578 75.826 107.823 84.3566 128.005C92.8871 148.186 116.186 157.641 136.396 149.122C144.71 145.618 151.206 139.618 155.379 132.364C159.091 125.912 163.756 119.652 170.62 116.759C177.485 113.865 185.231 114.894 192.449 116.739C200.565 118.813 209.402 118.35 217.716 114.846ZM200.218 47.4537C188.325 47.4537 177.858 53.5369 171.817 62.7421C177.537 52.2615 188.669 45.15 201.464 45.15C220.099 45.15 235.206 60.2354 235.206 78.844C235.206 84.9449 233.582 90.667 230.743 95.603C232.883 91.1985 234.082 86.2591 234.082 81.0406C234.082 62.4819 218.912 47.4537 200.218 47.4537ZM132.975 99.0835C133.882 99.53 134.254 100.626 133.807 101.531L121.299 126.859L108.101 121.18C107.173 120.78 106.745 119.705 107.145 118.778L107.869 117.099C108.269 116.172 109.346 115.744 110.275 116.144L118.682 119.762L128.882 99.106C129.329 98.2006 130.427 97.8286 131.333 98.2751L132.975 99.0835ZM101.868 95.2585C102.529 94.4945 102.444 93.3402 101.679 92.6805C100.914 92.0207 99.758 92.1053 99.0973 92.8694C94.5282 98.1533 91.7631 105.042 91.7631 112.571C91.7631 113.58 92.5826 114.399 93.5935 114.399C94.6045 114.399 95.424 113.58 95.424 112.571C95.424 105.952 97.8514 99.9038 101.868 95.2585ZM120.686 144.33C138.378 144.33 152.72 130.009 152.72 112.343C152.72 94.6768 138.378 80.3555 120.686 80.3555C102.995 80.3555 88.6531 94.6768 88.6531 112.343C88.6531 130.009 102.995 144.33 120.686 144.33ZM120.686 148.9C140.905 148.9 157.296 132.533 157.296 112.343C157.296 92.153 140.905 75.7858 120.686 75.7858C100.468 75.7858 84.077 92.153 84.077 112.343C84.077 132.533 100.468 148.9 120.686 148.9ZM215.592 118.826C219.872 117.022 223.67 114.557 226.918 111.599C222.977 116.179 217.917 119.958 211.931 122.481C203.67 125.963 194.924 126.514 186.902 124.607C179.641 122.881 171.882 121.897 165.005 124.796C162.129 126.008 159.633 127.804 157.422 129.953C160.394 126.023 163.966 122.648 168.496 120.738C175.361 117.845 183.107 118.874 190.325 120.719C198.441 122.793 207.278 122.33 215.592 118.826ZM134.272 153.102C138.552 151.298 142.351 148.832 145.598 145.875C141.657 150.455 136.597 154.234 130.611 156.757C110.401 165.275 87.2849 156.253 78.9798 136.605C73.8257 124.412 75.5869 110.992 82.4956 100.528C78.2268 110.178 77.7997 121.498 82.2324 131.985C90.763 152.166 114.062 161.62 134.272 153.102ZM200.218 50.1955C183.023 50.1955 169.1 64.0144 169.1 81.0406C169.1 98.0667 183.023 111.886 200.218 111.886C217.414 111.886 231.336 98.0667 231.336 81.0406C231.336 64.0144 217.414 50.1955 200.218 50.1955ZM187.193 74.7893L188.037 75.1428L198.581 79.5584L194.252 90.1268L193.905 90.9727C193.522 91.907 193.971 92.9743 194.906 93.3565L196.601 94.0486C197.536 94.4309 198.605 93.9833 198.988 93.049L199.334 92.2031L203.646 81.6791L214.146 86.0759L214.99 86.4294C215.922 86.8198 216.995 86.3816 217.386 85.4506L218.093 83.765C218.484 82.834 218.046 81.7629 217.113 81.3725L216.269 81.019L205.725 76.6036L210.054 66.0369L210.401 65.1911C210.783 64.2567 210.335 63.1894 209.399 62.8072L207.705 62.1151C206.77 61.7329 205.701 62.1805 205.318 63.1148L204.971 63.9607L200.661 74.4829L190.161 70.0859L189.317 69.7324C188.384 69.342 187.312 69.7802 186.921 70.7112L186.213 72.3968C185.822 73.3278 186.261 74.3989 187.193 74.7893ZM177.371 177.898C176.657 176.35 176.172 174.673 175.896 172.96C175.091 167.977 175.917 162.183 178.35 156.654C180.782 151.125 184.496 146.598 188.716 143.819C189.801 143.104 190.951 142.489 192.142 142.005C186.101 141.417 178.952 146.922 175.136 155.595C171.117 164.73 172.192 174.208 177.371 177.898ZM185.441 181.282C191.888 184.111 200.667 178.328 205.05 168.367C209.432 158.406 207.758 148.038 201.31 145.209C194.863 142.381 186.083 148.163 181.701 158.125C177.319 168.086 178.993 178.454 185.441 181.282ZM191.805 176.99C191.012 178.693 188.77 179.331 186.798 178.416C184.826 177.5 183.871 175.377 184.664 173.674C185.457 171.972 187.698 171.334 189.67 172.249C191.642 173.165 192.598 175.288 191.805 176.99ZM198.561 174.782C200.689 172.677 201.966 169.92 201.413 168.624C200.859 167.327 198.685 167.983 196.556 170.088C194.428 172.193 193.151 174.95 193.705 176.246C194.258 177.542 196.433 176.886 198.561 174.782ZM202.716 153.557C201.923 155.26 199.682 155.898 197.71 154.982C195.738 154.066 194.782 151.944 195.575 150.241C196.368 148.538 198.61 147.9 200.582 148.816C202.554 149.731 203.509 151.854 202.716 153.557ZM191.011 157.101C193.14 154.996 194.417 152.239 193.863 150.943C193.309 149.647 191.135 150.302 189.007 152.407C186.878 154.512 185.602 157.269 186.155 158.565C186.709 159.861 188.883 159.206 191.011 157.101ZM187.026 165.658C186.786 168.64 185.497 171.391 184.148 171.804C182.799 172.217 181.9 170.134 182.14 167.152C182.38 164.171 183.669 161.419 185.018 161.007C186.367 160.594 187.267 162.677 187.026 165.658ZM202.55 166.184C203.899 165.771 205.188 163.02 205.428 160.038C205.668 157.057 204.769 154.974 203.42 155.387C202.071 155.799 200.782 158.551 200.542 161.532C200.301 164.514 201.2 166.596 202.55 166.184Z" fill="white"/>
</g>
<defs>
<clipPath id="clip0_11075_59006">
<rect width="318" height="212" fill="white"/>
</clipPath>
</defs>
</svg>
