<svg width="28" height="28" viewBox="0 0 28 28" fill="none" xmlns="http://www.w3.org/2000/svg">
<path d="M12.8335 8.16665H15.1668V10.5H12.8335V8.16665ZM12.8335 12.8333H15.1668V19.8333H12.8335V12.8333ZM14.0002 2.33331C7.56016 2.33331 2.3335 7.55998 2.3335 14C2.3335 20.44 7.56016 25.6666 14.0002 25.6666C20.4402 25.6666 25.6668 20.44 25.6668 14C25.6668 7.55998 20.4402 2.33331 14.0002 2.33331ZM14.0002 23.3333C8.85516 23.3333 4.66683 19.145 4.66683 14C4.66683 8.85498 8.85516 4.66665 14.0002 4.66665C19.1452 4.66665 23.3335 8.85498 23.3335 14C23.3335 19.145 19.1452 23.3333 14.0002 23.3333Z" fill="white" fill-opacity="0.48"/>
</svg>
