<svg width="112" height="112" viewBox="0 0 112 112" fill="none" xmlns="http://www.w3.org/2000/svg">
<g opacity="0.88" filter="url(#filter0_dd_776_2538)">
<mask id="path-1-outside-1_776_2538" maskUnits="userSpaceOnUse" x="15.0004" y="14.9999" width="83" height="83" fill="black">
<rect fill="white" x="15.0004" y="14.9999" width="83" height="83"/>
<path d="M83.1894 18.3437C86.3125 15.2187 91.376 15.2185 94.499 18.3437C97.6221 21.469 97.6221 26.5367 94.499 29.662L67.7295 56.4482L93.9297 82.6669L94.2129 82.9657C97.0494 86.1073 96.9552 90.9566 93.9297 93.9843C90.9041 97.012 86.0573 97.1062 82.9179 94.2675L82.6201 93.9843L56.4199 67.7655L30.2207 93.9843L29.9228 94.2675C26.7835 97.1062 21.9367 97.012 18.9111 93.9843C15.8858 90.9567 15.7916 86.1072 18.6279 82.9657L18.9111 82.6669L45.1103 56.4482L18.3428 29.662C15.2197 26.5367 15.2197 21.469 18.3428 18.3437C21.4659 15.2187 26.5293 15.2185 29.6523 18.3437L56.4199 45.1308L83.1894 18.3437Z"/>
</mask>
<path d="M83.1894 18.3437C86.3125 15.2187 91.376 15.2185 94.499 18.3437C97.6221 21.469 97.6221 26.5367 94.499 29.662L67.7295 56.4482L93.9297 82.6669L94.2129 82.9657C97.0494 86.1073 96.9552 90.9566 93.9297 93.9843C90.9041 97.012 86.0573 97.1062 82.9179 94.2675L82.6201 93.9843L56.4199 67.7655L30.2207 93.9843L29.9228 94.2675C26.7835 97.1062 21.9367 97.012 18.9111 93.9843C15.8858 90.9567 15.7916 86.1072 18.6279 82.9657L18.9111 82.6669L45.1103 56.4482L18.3428 29.662C15.2197 26.5367 15.2197 21.469 18.3428 18.3437C21.4659 15.2187 26.5293 15.2185 29.6523 18.3437L56.4199 45.1308L83.1894 18.3437Z" fill="white" shape-rendering="crispEdges"/>
<path d="M83.1894 18.3437L82.4821 17.6368L82.4821 17.6368L83.1894 18.3437ZM94.499 18.3437L95.2064 17.6368L95.2064 17.6368L94.499 18.3437ZM94.499 29.662L95.2063 30.3689L95.2064 30.3689L94.499 29.662ZM67.7295 56.4482L67.0221 55.7413L66.3157 56.4481L67.0221 57.155L67.7295 56.4482ZM93.9297 82.6669L94.6555 81.979L94.6464 81.9694L94.637 81.9601L93.9297 82.6669ZM94.2129 82.9657L94.9551 82.2956L94.947 82.2866L94.9387 82.2779L94.2129 82.9657ZM93.9297 93.9843L94.637 94.6912H94.637L93.9297 93.9843ZM82.9179 94.2675L82.2289 94.9922L82.238 95.0008L82.2472 95.0092L82.9179 94.2675ZM82.6201 93.9843L81.9127 94.6912L81.9218 94.7002L81.931 94.709L82.6201 93.9843ZM56.4199 67.7655L57.1273 67.0587L56.4199 66.3508L55.7125 67.0587L56.4199 67.7655ZM30.2207 93.9843L30.9097 94.709L30.919 94.7002L30.9281 94.6911L30.2207 93.9843ZM29.9228 94.2675L30.5935 95.0092L30.6028 95.0008L30.6119 94.9922L29.9228 94.2675ZM18.9111 93.9843L18.2037 94.6911L18.2038 94.6912L18.9111 93.9843ZM18.6279 82.9657L17.9021 82.2779L17.8938 82.2866L17.8857 82.2956L18.6279 82.9657ZM18.9111 82.6669L18.2037 81.9601L18.1944 81.9694L18.1853 81.979L18.9111 82.6669ZM45.1103 56.4482L45.8177 57.155L46.524 56.4481L45.8177 55.7413L45.1103 56.4482ZM18.3428 29.662L17.6354 30.3689L17.6354 30.3689L18.3428 29.662ZM18.3428 18.3437L17.6354 17.6368L17.6354 17.6368L18.3428 18.3437ZM29.6523 18.3437L30.3597 17.6368L30.3597 17.6368L29.6523 18.3437ZM56.4199 45.1308L55.7125 45.8376L56.4199 46.5455L57.1272 45.8377L56.4199 45.1308ZM83.1894 18.3437L83.8968 19.0506C86.6293 16.3164 91.0592 16.3163 93.7917 19.0505L94.499 18.3437L95.2064 17.6368C91.6927 14.1208 85.9958 14.121 82.4821 17.6368L83.1894 18.3437ZM94.499 18.3437L93.7916 19.0505C96.5246 21.7854 96.5246 26.2204 93.7916 28.9552L94.499 29.662L95.2064 30.3689C98.7197 26.8531 98.7197 21.1526 95.2064 17.6368L94.499 18.3437ZM94.499 29.662L93.7917 28.9551L67.0221 55.7413L67.7295 56.4482L68.4368 57.1551L95.2063 30.3689L94.499 29.662ZM67.7295 56.4482L67.0221 57.155L93.2223 83.3738L93.9297 82.6669L94.637 81.9601L68.4368 55.7413L67.7295 56.4482ZM93.9297 82.6669L93.2038 83.3548L93.487 83.6536L94.2129 82.9657L94.9387 82.2779L94.6555 81.979L93.9297 82.6669ZM94.2129 82.9657L93.4707 83.6359C95.9523 86.3844 95.8696 90.6283 93.2223 93.2774L93.9297 93.9843L94.637 94.6912C98.0409 91.2849 98.1465 85.8301 94.9551 82.2956L94.2129 82.9657ZM93.9297 93.9843L93.2223 93.2774C90.5753 95.9263 86.3347 96.0089 83.5887 93.5258L82.9179 94.2675L82.2472 95.0092C85.7798 98.2035 91.2328 98.0978 94.637 94.6912L93.9297 93.9843ZM82.9179 94.2675L83.607 93.5428L83.3092 93.2596L82.6201 93.9843L81.931 94.709L82.2289 94.9922L82.9179 94.2675ZM82.6201 93.9843L83.3275 93.2774L57.1273 67.0587L56.4199 67.7655L55.7125 68.4724L81.9127 94.6912L82.6201 93.9843ZM56.4199 67.7655L55.7125 67.0587L29.5133 93.2775L30.2207 93.9843L30.9281 94.6911L57.1273 68.4724L56.4199 67.7655ZM30.2207 93.9843L29.5316 93.2596L29.2338 93.5428L29.9228 94.2675L30.6119 94.9922L30.9097 94.709L30.2207 93.9843ZM29.9228 94.2675L29.2521 93.5258C26.506 96.0089 22.2654 95.9263 19.6185 93.2774L18.9111 93.9843L18.2038 94.6912C21.608 98.0978 27.061 98.2035 30.5935 95.0092L29.9228 94.2675ZM18.9111 93.9843L19.6185 93.2775C16.9714 90.6284 16.8887 86.3843 19.3701 83.6359L18.6279 82.9657L17.8857 82.2956C14.6945 85.8301 14.8002 91.285 18.2037 94.6911L18.9111 93.9843ZM18.6279 82.9657L19.3537 83.6536L19.6369 83.3548L18.9111 82.6669L18.1853 81.979L17.9021 82.2779L18.6279 82.9657ZM18.9111 82.6669L19.6185 83.3738L45.8177 57.155L45.1103 56.4482L44.403 55.7413L18.2037 81.9601L18.9111 82.6669ZM45.1103 56.4482L45.8177 55.7413L19.0501 28.9552L18.3428 29.662L17.6354 30.3689L44.403 57.155L45.1103 56.4482ZM18.3428 29.662L19.0501 28.9552C16.3172 26.2204 16.3172 21.7854 19.0501 19.0505L18.3428 18.3437L17.6354 17.6368C14.1221 21.1526 14.1221 26.8531 17.6354 30.3689L18.3428 29.662ZM18.3428 18.3437L19.0501 19.0506C21.7827 16.3164 26.2126 16.3163 28.945 19.0505L29.6523 18.3437L30.3597 17.6368C26.8461 14.1207 21.1491 14.1211 17.6354 17.6368L18.3428 18.3437ZM29.6523 18.3437L28.945 19.0505L55.7125 45.8376L56.4199 45.1308L57.1273 44.4239L30.3597 17.6368L29.6523 18.3437ZM56.4199 45.1308L57.1272 45.8377L83.8968 19.0505L83.1894 18.3437L82.4821 17.6368L55.7126 44.4239L56.4199 45.1308Z" fill="black" fill-opacity="0.18" mask="url(#path-1-outside-1_776_2538)"/>
</g>
<defs>
<filter id="filter0_dd_776_2538" x="11.0004" y="10.9999" width="90.8409" height="90.3282" filterUnits="userSpaceOnUse" color-interpolation-filters="sRGB">
<feFlood flood-opacity="0" result="BackgroundImageFix"/>
<feColorMatrix in="SourceAlpha" type="matrix" values="0 0 0 0 0 0 0 0 0 0 0 0 0 0 0 0 0 0 127 0" result="hardAlpha"/>
<feOffset/>
<feGaussianBlur stdDeviation="2"/>
<feComposite in2="hardAlpha" operator="out"/>
<feColorMatrix type="matrix" values="0 0 0 0 0 0 0 0 0 0 0 0 0 0 0 0 0 0 0.24 0"/>
<feBlend mode="normal" in2="BackgroundImageFix" result="effect1_dropShadow_776_2538"/>
<feColorMatrix in="SourceAlpha" type="matrix" values="0 0 0 0 0 0 0 0 0 0 0 0 0 0 0 0 0 0 127 0" result="hardAlpha"/>
<feOffset dy="2"/>
<feGaussianBlur stdDeviation="1"/>
<feComposite in2="hardAlpha" operator="out"/>
<feColorMatrix type="matrix" values="0 0 0 0 0 0 0 0 0 0 0 0 0 0 0 0 0 0 0.08 0"/>
<feBlend mode="normal" in2="effect1_dropShadow_776_2538" result="effect2_dropShadow_776_2538"/>
<feBlend mode="normal" in="SourceGraphic" in2="effect2_dropShadow_776_2538" result="shape"/>
</filter>
</defs>
</svg>
