<svg width="32" height="32" viewBox="0 0 32 32" fill="none" xmlns="http://www.w3.org/2000/svg">
<path d="M16.0104 8.66732C19.6904 8.66732 22.6771 11.654 22.6771 15.334C22.6771 16.2007 22.5037 17.014 22.1971 17.774L26.0904 21.6673C28.1038 19.9873 29.6904 17.814 30.6637 15.334C28.3571 9.48065 22.6637 5.33398 15.9971 5.33398C14.1304 5.33398 12.3438 5.66732 10.6904 6.26732L13.5704 9.14732C14.3304 8.84065 15.1438 8.66732 16.0104 8.66732ZM2.67708 5.02732L6.33042 8.68065C4.11708 10.4007 2.38375 12.694 1.34375 15.334C3.65042 21.1873 9.34375 25.334 16.0104 25.334C18.0771 25.334 20.0504 24.934 21.8504 24.214L22.4104 24.774L26.3171 28.6673L28.0104 26.974L4.37042 3.33398L2.67708 5.02732ZM10.0504 12.4007L12.1171 14.4673C12.0504 14.7473 12.0104 15.0407 12.0104 15.334C12.0104 17.5473 13.7971 19.334 16.0104 19.334C16.3038 19.334 16.5971 19.294 16.8771 19.2273L18.9438 21.294C18.0504 21.734 17.0638 22.0007 16.0104 22.0007C12.3304 22.0007 9.34375 19.014 9.34375 15.334C9.34375 14.2807 9.61042 13.294 10.0504 12.4007ZM15.7971 11.3607L19.9971 15.5607L20.0238 15.3473C20.0238 13.134 18.2371 11.3473 16.0238 11.3473L15.7971 11.3607Z" fill="white" fill-opacity="0.69"/>
</svg>
