<svg width="24" height="24" viewBox="0 0 24 24" fill="none" xmlns="http://www.w3.org/2000/svg">
<g transform="translate(2 2.75)">
<path id="Union (Stroke)" d="M10.4688 18.3828C10.1755 18.5385 9.82451 18.5385 9.53125 18.3828L10 17.5L10.4688 18.3828ZM18 5.5C18 3.60508 16.3879 2 14.3125 2C12.7682 2 11.4673 2.89714 10.9141 4.13965C10.7535 4.50052 10.395 4.7334 10 4.7334C9.605 4.7334 9.24655 4.50052 9.08594 4.13965C8.53271 2.89714 7.23177 2 5.6875 2C3.61208 2 2 3.60508 2 5.5C2 8.69052 3.99935 11.4423 6.18164 13.4766C7.25647 14.4785 8.3358 15.2681 9.14746 15.8076C9.48665 16.0331 9.77802 16.2127 10 16.3457C10.222 16.2127 10.5134 16.0331 10.8525 15.8076C11.6642 15.2681 12.7435 14.4785 13.8184 13.4766C16.0006 11.4423 18 8.69052 18 5.5ZM20 5.5C20 9.53004 17.4994 12.7789 15.1816 14.9395C14.0066 16.0348 12.8357 16.8915 11.96 17.4736C11.5211 17.7653 11.1534 17.9897 10.8936 18.1426C10.7637 18.219 10.6601 18.2781 10.5879 18.3184C10.5521 18.3383 10.5239 18.3534 10.5039 18.3643C10.4939 18.3697 10.4853 18.3738 10.4795 18.377C10.4767 18.3785 10.4744 18.3799 10.4727 18.3809C10.4718 18.3813 10.4713 18.3825 10.4707 18.3828H10.4697L10 17.5L9.53027 18.3828H9.5293C9.52866 18.3825 9.52825 18.3813 9.52734 18.3809C9.52556 18.3799 9.52334 18.3785 9.52051 18.377C9.51471 18.3738 9.50612 18.3697 9.49609 18.3643C9.47615 18.3534 9.44785 18.3383 9.41211 18.3184C9.33992 18.2781 9.23634 18.219 9.10645 18.1426C8.84656 17.9897 8.47886 17.7653 8.04004 17.4736C7.16428 16.8915 5.99343 16.0348 4.81836 14.9395C2.50065 12.7789 0 9.53004 0 5.5C0 2.42435 2.58525 0 5.6875 0C7.40374 0 8.95243 0.738852 10 1.91699C11.0476 0.738852 12.5963 0 14.3125 0C17.4148 0 20 2.42435 20 5.5Z" fill="#000000"/>
</g>
</svg>
