<svg width="820" height="820" viewBox="0 0 820 820" fill="none" xmlns="http://www.w3.org/2000/svg">
<path d="M99.3464 184.878C46.9407 245.926 45.5589 330.903 96.37 374.508C147.181 418.22 230.839 404.075 283.351 342.921C335.756 281.873 337.138 196.896 286.327 153.291C266.449 136.168 241.362 127.979 215.213 127.979C174.606 127.979 131.236 147.761 99.3464 184.878Z" fill="white"/>
<path d="M84.1442 500.751C44.7071 547.547 61.8214 626.993 122.412 678.15C183.003 729.306 264.216 732.922 303.653 686.126C343.09 639.33 325.976 559.884 265.385 508.727C233.282 481.607 195.44 467.887 161.105 467.887C130.597 467.887 102.747 478.735 84.2505 500.751" fill="white"/>
<path d="M439.928 671.981C368.813 694.421 319.809 740.154 330.439 774.081C341.175 808.008 407.506 817.367 478.621 794.82C549.735 772.379 598.739 726.647 588.109 692.72C581.306 671.343 552.392 659.644 514.125 659.644C491.695 659.644 466.183 663.579 439.928 671.874" fill="white"/>
<path d="M328.632 59.3746C313.963 101.704 360.522 156.37 432.805 181.576C505.089 206.782 575.566 192.849 590.235 150.52C604.904 108.191 558.345 53.5251 486.061 28.3191C461.719 19.8108 437.483 15.7693 415.585 15.7693C372.534 15.7693 338.305 31.297 328.632 59.3746Z" fill="white"/>
<path d="M653.59 144.682C632.649 153.084 637.645 214.238 664.645 281.028C691.645 347.925 730.445 395.253 751.386 386.851C772.22 378.449 767.331 317.402 740.331 250.505C715.457 188.819 680.484 143.725 658.799 143.725C656.992 143.725 655.291 144.044 653.59 144.682Z" fill="white"/>
<path d="M669.64 551.058C639.876 615.615 629.565 674.429 646.68 682.299C663.794 690.169 701.849 644.224 731.613 579.667C761.483 515.11 771.688 456.296 754.68 448.426C753.404 447.788 752.022 447.575 750.428 447.575C731.825 447.575 697.172 491.393 669.64 551.058Z" fill="white"/>
</svg>
