<svg width="12" height="16" viewBox="0 0 12 16" fill="none" xmlns="http://www.w3.org/2000/svg">
<path fill-rule="evenodd" clip-rule="evenodd" d="M4.47241 0.5C4.47241 0.223858 4.69709 0 4.97425 0H6.47977C6.75692 0 6.98161 0.223858 6.98161 0.5V1.44266C7.6244 1.52327 8.22052 1.67232 8.77002 1.88982C9.64849 2.23541 10.3421 2.71981 10.851 3.343C11.2476 3.82872 11.5043 4.37293 11.6211 4.97564C11.6758 5.25812 11.4432 5.50153 11.1544 5.50153H9.36418C9.11174 5.50153 8.90693 5.31006 8.81248 5.07682C8.73085 4.87525 8.60958 4.69106 8.44865 4.52425C8.18083 4.24665 7.81388 4.03136 7.34788 3.87838C6.8872 3.72542 6.35155 3.64894 5.74091 3.64894C5.16238 3.64894 4.65888 3.71124 4.23037 3.83591C3.80186 3.96055 3.4724 4.14182 3.24207 4.37977C3.01173 4.61205 2.89656 4.89249 2.89656 5.22109C2.89656 5.4817 2.96089 5.69699 3.08941 5.86696C3.22332 6.03691 3.44024 6.17857 3.74023 6.29188C4.04555 6.40519 4.45801 6.49581 4.97762 6.56381L7.49251 6.88675C8.61197 7.02271 9.49852 7.22949 10.152 7.50712C10.8055 7.77905 11.2769 8.14448 11.5661 8.60338C11.8554 9.06228 12 9.6543 12 10.3795C12 11.2293 11.7562 11.9743 11.2688 12.6145C10.7814 13.2547 10.093 13.7504 9.20392 14.1017C8.5414 14.365 7.80065 14.5296 6.98161 14.5955V15.5C6.98161 15.7761 6.75692 16 6.47977 16H4.97425C4.69709 16 4.47241 15.7761 4.47241 15.5V14.4941C3.93688 14.4021 3.43571 14.2628 2.96891 14.0762C2.04756 13.7079 1.32176 13.1895 0.791495 12.521C0.372563 11.9875 0.110557 11.389 0.00547599 10.7256C-0.038853 10.4457 0.19208 10.2095 0.47646 10.2095H2.28364C2.53724 10.2095 2.74393 10.4013 2.82615 10.6403C2.91569 10.9006 3.05701 11.1366 3.25009 11.3483C3.55008 11.6655 3.94913 11.912 4.44729 12.0876C4.95078 12.2633 5.52932 12.3511 6.18284 12.3511C6.80953 12.3511 7.35321 12.2859 7.81388 12.1556C8.27988 12.0253 8.63611 11.8355 8.88249 11.5862C9.13427 11.3369 9.26016 11.0424 9.26016 10.7024C9.26016 10.4191 9.19051 10.1869 9.05126 10.0056C8.91735 9.82427 8.68701 9.67698 8.36026 9.56367C8.03883 9.4447 7.59426 9.3512 7.02645 9.28323L4.59995 8.99428C3.5608 8.87531 2.7118 8.66286 2.05296 8.35692C1.39944 8.05098 0.917323 7.64874 0.606675 7.1502C0.301356 6.65162 0.148697 6.04542 0.148697 5.33158C0.148697 4.51576 0.379034 3.81041 0.839707 3.21554C1.30571 2.62065 1.96456 2.16459 2.81625 1.84732C3.31889 1.6601 3.8709 1.5281 4.47241 1.45137V0.5Z" fill="white"/>
</svg>
