<svg preserveAspectRatio="none" width="100%" height="100%" overflow="visible" style="display: block;" viewBox="0 0 420.362 90.5553" fill="none" xmlns="http://www.w3.org/2000/svg">
<g id="Vector">
<path d="M26.9457 81.3172C27.8234 84.8758 34.7551 85.1766 34.838 87.1734C34.747 88.6731 33.3825 88.3794 31.6042 88.3794C21.709 88.4609 1.97407 88.5435 1.97407 88.5435C1.97407 88.5435 0.713273 88.6963 0.323178 87.6214C0.06745 86.9192 0.741474 86.4336 1.74489 86.0472C2.74832 85.6608 3.671 85.286 4.64559 84.7324C5.62017 84.1788 7.14733 82.2058 7.38572 79.9996C7.81049 76.0293 8.07923 72.2064 8.0749 68.0671L8.03156 23.8434C8.03156 20.1635 7.92319 16.722 7.59811 13.1331C7.34672 10.3504 7.10677 8.15287 5.80346 7.01984C4.50015 5.88681 2.66725 5.28322 1.72669 5.00582C0.786129 4.72842 -0.10936 4.19417 0.0108869 3.44995C0.131134 2.70573 0.62045 2.12518 1.72669 2.1237C12.2525 2.1237 18.4502 2.19902 27.8391 2.19902C34.7738 2.06423 45.2933 1.91868 51.8994 4.56404C59.4543 7.37705 62.9529 14.8939 63.6204 22.8561C64.8557 37.6104 57.6295 47.9859 43.3087 50.8292C33.4566 52.784 27.2762 51.0676 27.2762 51.0676C27.2762 51.0676 25.8597 50.6758 25.8597 50.8292C25.8597 50.8292 25.8475 63.5784 25.8597 67.2777C25.872 70.977 26.068 77.7585 26.9457 81.3172ZM44.4573 36.5648C47.0969 28.5809 47.2356 14.078 39.1173 8.95477C35.5818 6.72202 31.6255 5.67832 27.6599 6.52141C27.2969 6.64896 26.4925 7.03411 26.3623 7.67615C25.1667 13.5749 25.8597 44.557 25.8597 44.86C25.8597 45.1875 26.6631 45.9451 27.6403 46.2565C36.1183 48.2113 41.5879 45.2552 44.4573 36.5648Z" fill="white" fill-opacity="1"/>
<path d="M359.995 90.0279C353.143 90.8905 346.572 89.8805 340.829 86.3003C335.086 82.7201 330.695 76.8644 328.636 70.1547C324.687 57.2773 328.298 42.406 339.541 34.2964C351.283 25.8314 368.261 27.4394 377.892 39.0382C382.876 45.0413 385.057 52.5442 384.979 60.3677C384.831 75.0613 375.144 88.1251 360 90.0322L359.995 90.0279ZM352.003 84.2848C356.367 87.527 361.998 86.3003 364.694 81.8489C365.942 79.7857 366.874 77.6619 367.398 75.2043C369.297 66.3145 369.232 57.1906 367.325 48.2921C366.232 43.1906 363.571 36.1862 358.539 33.9496C354.976 32.3633 350.902 33.6462 348.47 36.611C344.248 41.7602 343.503 50.5373 343.447 57.0606C343.382 65.2482 344.877 78.9969 351.998 84.2892L352.003 84.2848Z" fill="white" fill-opacity="1"/>
<path d="M87.1676 90.553C78.9973 90.4577 71.7501 87.3586 66.4795 81.3468C56.9135 70.4328 56.3804 53.1776 64.4857 41.4098C68.3607 35.7838 73.7743 32.0085 80.2672 30.2054C93.2877 26.5905 106.694 32.3726 112.918 44.3832C115.597 49.5541 116.672 55.2105 116.485 61.1572C115.974 77.4979 104.267 90.7524 87.1632 90.553H87.1676ZM95.2989 83.4967C99.9063 78.4428 100.37 68.4824 100.37 62.0501C100.37 55.6179 99.4815 48.7999 97.167 42.5367C96.2698 40.1095 94.9608 38.0333 93.227 36.2085C89.4604 32.2469 83.3966 32.5936 79.9855 36.954C73.926 44.6996 74.6542 62.2972 76.6393 71.5598C77.5366 75.7468 79.1359 79.496 81.7452 82.7208C85.1694 86.9598 91.5193 87.636 95.2989 83.4923V83.4967Z" fill="white" fill-opacity="1"/>
<path d="M136.857 0.421115C137.284 0.239269 138.282 0.129275 138.659 0.29842C139.111 0.501419 139.31 1.51645 139.31 2.2904L139.33 27.7999L139.326 27.8002V75.2893C139.326 77.2657 139.474 78.9648 139.716 80.7635C140.158 84.0359 141.115 84.8111 143.356 85.5263C143.655 85.6217 144.932 86.0571 145.219 86.5626C145.505 87.0682 145.178 87.6967 144.963 87.9031C144.748 88.1095 144.283 88.3333 144.006 88.3333C140.649 88.3333 127.868 88.3342 118.258 88.3854C117.804 88.3854 117.022 88.1314 116.831 87.3859C116.637 86.4783 117.757 86.0175 118.488 85.7749C119.219 85.5323 121.043 84.96 121.911 83.963C122.778 82.966 123.037 81.4584 123.102 79.9346C123.229 76.9412 123.176 75.0378 123.181 72.2812V30.3764C123.181 29.5929 123.199 27.3691 123.204 26.0327C123.193 21.7694 123.087 19.0387 122.837 15.3545C122.419 9.21379 116.244 11.5988 115.728 9.514C115.605 9.0192 116.278 8.00413 116.84 7.8349C123.806 5.76682 130.179 3.27582 136.857 0.421115Z" fill="white" fill-opacity="1"/>
<path d="M166.301 0.204412C166.725 0.0244179 167.715 -0.0843395 168.088 0.0830968C168.537 0.28412 168.734 1.28857 168.734 2.05452L168.754 27.3026L168.753 54.5566C168.753 54.808 169.1 55.3238 169.291 55.4538C169.482 55.5838 170.153 55.4625 170.4 55.2328C175.268 50.6471 180.439 45.7621 185.046 40.8513C186.199 39.6246 187.045 37.9646 186.494 36.4736C185.471 33.704 180.833 35.3032 180.803 32.4166C180.79 31.1163 181.826 30.3101 183.235 30.4098C190.733 30.9429 198.071 30.9212 205.565 30.3621C206.779 30.2711 207.607 31.1076 207.702 32.1565C208.019 35.585 201.404 33.6476 194.344 39.1826C190.946 41.8439 187.933 44.7913 184.834 47.756C183.915 48.6359 183.746 49.5981 184.531 50.8204L202.757 79.1456L202.752 79.1326C205.906 83.4665 205.981 84.0632 208.059 84.8106C210.138 85.558 210.885 86.2058 210.885 86.9531C210.885 87.8358 210.252 88.2021 209.991 88.1985C204.975 88.1287 199.873 88.0902 195.387 88.1985L188.918 88.3893C186.963 88.5446 186.872 88.0923 186.963 87.5231C187.09 86.7252 187.434 85.6385 186.963 84.6636C186.526 83.7602 184.843 81.3995 184.379 80.6627L174.527 65.1022C173.508 63.4942 171.254 59.5761 169.638 60.5467C169.053 60.8977 168.779 61.6607 168.784 62.4626C168.827 68.2706 168.662 73.9226 169.053 79.6223C169.525 86.5228 175.383 85.3842 175.432 86.8562C175.481 88.3283 174.946 88.4261 173.575 88.382C164.409 88.3228 156.542 88.3228 147.288 88.3228C146.782 88.3227 146.387 87.7951 146.387 87.1051C146.387 86.4152 147.145 86.0852 147.816 85.7903C148.486 85.4954 150.153 85.0535 151.365 83.8653C152.576 82.6771 152.721 79.5357 152.716 75.1103L152.656 29.2871C152.654 28.6652 152.686 25.5638 152.687 24.6121C152.66 20.2226 152.578 17.6582 152.397 14.9849C151.982 8.90701 145.858 11.2676 145.346 9.20405C145.224 8.71428 145.891 7.70971 146.449 7.54228C153.357 5.49538 159.678 3.02988 166.301 0.204412Z" fill="white" fill-opacity="1"/>
<path d="M403.698 10.5947C404.214 10.4777 405.336 11.1999 405.344 11.7807L405.598 30.8847L419.389 30.9494C420.656 31.5103 420.805 35.4631 419.119 35.4833L405.654 35.6365V40.6526L405.651 40.6521V70.322C405.651 72.8619 405.803 75.2502 406.258 77.6254C406.8 80.4384 409.443 81.9901 412.122 81.2489H412.118C416.682 79.9833 417.974 76.4422 419.79 79.0686C420.301 79.8054 420.253 80.9671 419.551 81.7776C414.246 87.8848 406.379 92.0849 398.248 89.5796C391.4 87.4688 389.93 80.0353 389.93 73.6291L389.93 39.4362L389.926 39.436L389.914 35.338L383.126 35.0759C382.714 35.0598 382.25 33.7689 382.46 33.4421C383.562 31.7196 395.106 26.7539 402.085 11.7201C402.294 11.2724 403.254 10.6956 403.698 10.5947Z" fill="white" fill-opacity="1"/>
<path fill-rule="evenodd" clip-rule="evenodd" d="M318.889 0.20526C319.312 0.0253263 320.3 -0.0834244 320.672 0.0839404C321.12 0.284902 321.317 1.28955 321.317 2.05552L321.395 27.3027L321.398 27.3028L321.398 28.5994L321.401 29.4412H321.399L321.406 70.8737C321.406 75.769 321.432 75.246 321.589 77.2541C321.745 79.2621 322.328 80.6514 323.199 81.7244C324.47 83.2884 327.864 82.1958 328.338 83.303C328.555 83.8137 328.546 84.7747 327.279 85.1405L308.936 90.2514C307.816 90.6127 307.283 90.2766 306.99 89.9333C306.022 88.7935 306.773 86.7444 306.112 84.0718C306.028 83.7318 305.751 83.4363 305.461 83.6321C303.233 85.1361 301.417 86.4625 299.215 87.7325C291.629 92.1233 282.434 90.8264 276.118 84.6206L275.978 84.4816C271.514 80.0086 268.822 74.6036 267.569 68.4879C264.982 55.8532 268.012 42.2821 278.414 34.0122C281.596 31.4853 285.353 29.9639 289.371 29.2704C294.473 28.3949 299.236 29.3917 303.762 31.7409C304.407 32.0789 305.435 30.8568 305.439 30.1849C305.44 29.9855 305.441 29.7682 305.443 29.5409C305.443 29.5101 305.443 29.4792 305.444 29.4482C305.445 29.2904 305.447 29.1283 305.448 28.9643C305.487 24.1081 305.323 19.5686 305.013 14.9857C304.598 8.90801 298.487 11.2686 297.976 9.20505C297.855 8.71528 298.521 7.71077 299.077 7.54328C305.971 5.49638 312.28 3.03072 318.889 0.20526ZM298.747 33.7824C294.707 32.7032 290.685 34.346 288.102 37.6964C285.796 40.6958 284.699 44.302 284.045 48.1249C282.766 55.5713 283.009 63.0786 284.755 70.4383C286.116 76.177 289.753 82.7609 296.263 82.8476C301.001 82.9083 305.404 80.0043 305.387 74.5474L305.274 42.0178C305.261 37.9088 302.578 34.8053 298.747 33.7824Z" fill="white" fill-opacity="1"/>
<path fill-rule="evenodd" clip-rule="evenodd" d="M235.138 28.9911C238.027 28.9911 240.66 29.246 243.039 29.7557C245.418 30.2654 247.457 30.8177 249.156 31.4124C250.94 31.9221 252.342 32.1769 253.361 32.1769C254.211 32.1769 255.018 32.0071 255.783 31.6673C256.547 31.2425 257.269 30.7327 257.949 30.138C258.289 29.9681 258.586 29.7981 258.841 29.6282C259.181 29.4583 259.478 29.3735 259.733 29.3735C260.497 29.3735 261.092 29.5433 261.517 29.8831C261.942 30.2229 262.154 30.5628 262.154 30.9026C262.154 31.7521 261.899 33.3239 261.39 35.6177C260.965 37.9115 260.752 40.9274 260.752 44.6655L260.799 70.8285L260.804 70.8253C260.805 75.4278 260.93 76.5739 260.954 76.9409C261.086 78.9507 261.725 80.3293 262.597 81.4023C263.868 82.9662 267.262 81.8737 267.736 82.9808C267.953 83.4915 267.944 84.4525 266.677 84.8183L248.334 89.9293C247.214 90.2905 246.68 89.9544 246.387 89.6112C245.42 88.4714 246.171 86.4222 245.51 83.7497C245.481 83.6309 245.428 83.5175 245.359 83.4287C245.236 83.2697 245.005 83.2624 244.839 83.3748C244.465 83.627 244.17 83.8685 243.816 84.1112L243.728 84.168C242.883 84.7748 242.266 85.1632 241.094 85.8665C238.069 87.514 236.182 88.1812 234.228 88.8609C232.359 89.5405 230.575 89.8803 228.876 89.8803C224.288 89.8803 221.738 88.7334 218.085 86.4396C214.517 84.0609 211.671 80.9174 209.547 77.0095C207.424 73.0166 206.362 68.5139 206.362 63.5015C206.362 58.1493 206.241 51.2407 209.802 44.6655C212.686 39.34 215.707 36.2123 220.379 33.3238C225.052 30.4354 229.862 28.9911 235.138 28.9911ZM234.572 33.6855C232.363 33.6855 230.409 34.6626 228.71 36.6166C227.011 38.5706 225.18 41.9894 224.161 45.3027C223.226 48.531 222.759 52.1416 222.759 56.1345C222.759 59.023 223.057 65.6679 223.651 68.2166C224.246 70.7652 225.096 73.0591 226.2 75.098C227.389 77.052 228.791 78.5812 230.405 79.6856C232.019 80.79 233.888 81.3423 236.012 81.3423C237.796 81.3423 238.661 81.153 240.235 80.5776C241.163 80.2385 242.44 79.3649 243.381 78.5665C244.039 78.0086 244.34 77.1662 244.421 76.3073C244.524 75.2015 244.696 73.8938 244.696 72.2944V48.4885C244.696 44.4107 243.135 39.4956 241.599 37.636C240.063 35.7764 237.715 33.6855 234.572 33.6855Z" fill="white" fill-opacity="1"/>
</g>
<defs>
<filter id="filter0_i_0_4" x="0" y="0" width="420.362" height="91.5553" filterUnits="userSpaceOnUse" color-interpolation-filters="sRGB">
<feFlood flood-opacity="0" result="BackgroundImageFix"/>
<feBlend mode="normal" in="SourceGraphic" in2="BackgroundImageFix" result="shape"/>
<feColorMatrix in="SourceAlpha" type="matrix" values="0 0 0 0 0 0 0 0 0 0 0 0 0 0 0 0 0 0 127 0" result="hardAlpha"/>
<feOffset dy="1"/>
<feGaussianBlur stdDeviation="0.5"/>
<feComposite in2="hardAlpha" operator="arithmetic" k2="-1" k3="1"/>
<feColorMatrix type="matrix" values="0 0 0 0 0.564691 0 0 0 0 0.665138 0 0 0 0 0.847769 0 0 0 1 0"/>
<feBlend mode="multiply" in2="shape" result="effect1_innerShadow_0_4"/>
</filter>
</defs>
</svg>
