<svg width="18.3333" height="15" viewBox="0 0 18.3333 15" fill="none" xmlns="http://www.w3.org/2000/svg">
<g>
  <path d="M9.21787 0.0659293C9.51408 0.193085 9.70588 0.483 9.70588 0.803588V14.1964C9.70588 14.517 9.51408 14.8069 9.21787 14.9341C8.92165 15.0612 8.5777 15.0013 8.34272 14.7816L3.99296 10.7143H1.25879C0.924483 10.7143 0.624622 10.5099 0.504234 10.2001C0.17831 9.36122 0 8.45035 0 7.5C0 6.54965 0.17831 5.63878 0.504234 4.79992C0.624622 4.49006 0.924483 4.28572 1.25879 4.28572H3.99296L8.34272 0.218429C8.5777 -0.00129122 8.92165 -0.0612265 9.21787 0.0659293Z" fill="currentColor"/>
  <path d="M13.2435 4.5211C12.9276 4.20728 12.4155 4.20728 12.0996 4.5211C11.7838 4.83491 11.7838 5.3437 12.0996 5.65752L13.9542 7.50001L12.0996 9.34251C11.7838 9.65633 11.7838 10.1651 12.0996 10.4789C12.4155 10.7927 12.9276 10.7927 13.2435 10.4789L15.098 8.63643L16.9526 10.4789C17.2684 10.7927 17.7806 10.7927 18.0964 10.4789C18.4123 10.1651 18.4123 9.65633 18.0964 9.34251L16.2419 7.50001L18.0964 5.65752C18.4123 5.3437 18.4123 4.83491 18.0964 4.5211C17.7806 4.20728 17.2684 4.20728 16.9526 4.5211L15.098 6.3636L13.2435 4.5211Z" fill="currentColor"/>
</g>
</svg>
