<svg width="20" height="20" viewBox="0 0 20 20" xmlns="http://www.w3.org/2000/svg">
  <g transform="translate(0.835, 0.835)">
    <path d="M16.6667 9.16667C16.6667 5.02453 13.3088 1.66667 9.16667 1.66667C5.02453 1.66667 1.66667 5.02453 1.66667 9.16667C1.66667 13.3088 5.02453 16.6667 9.16667 16.6667C13.3088 16.6667 16.6667 13.3088 16.6667 9.16667ZM9.17481 11.6667C9.63504 11.6667 10.0081 12.0398 10.0081 12.5C10.0081 12.9602 9.63504 13.3333 9.17481 13.3333H9.16667C8.70643 13.3333 8.33333 12.9602 8.33333 12.5C8.33333 12.0398 8.70643 11.6667 9.16667 11.6667H9.17481ZM8.33333 9.16667V5.83333C8.33333 5.3731 8.70643 5 9.16667 5C9.6269 5 10 5.3731 10 5.83333V9.16667C10 9.6269 9.6269 10 9.16667 10C8.70643 10 8.33333 9.6269 8.33333 9.16667ZM18.3333 9.16667C18.3333 14.2293 14.2293 18.3333 9.16667 18.3333C4.10406 18.3333 0 14.2293 0 9.16667C0 4.10406 4.10406 0 9.16667 0C14.2293 0 18.3333 4.10406 18.3333 9.16667Z" fill="currentColor"/>
  </g>
</svg>
