<svg width="18" height="18" viewBox="0 0 18 18" fill="none" xmlns="http://www.w3.org/2000/svg">
<path d="M11.8162 10.6913H11.2237L11.0137 10.4888C11.7487 9.63378 12.1912 8.52378 12.1912 7.31628C12.1912 4.62378 10.0087 2.44128 7.31616 2.44128C4.62366 2.44128 2.44116 4.62378 2.44116 7.31628C2.44116 10.0088 4.62366 12.1913 7.31616 12.1913C8.52366 12.1913 9.63366 11.7488 10.4887 11.0138L10.6912 11.2238V11.8163L14.4412 15.5588L15.5587 14.4413L11.8162 10.6913ZM7.31616 10.6913C5.44866 10.6913 3.94116 9.18378 3.94116 7.31628C3.94116 5.44878 5.44866 3.94128 7.31616 3.94128C9.18366 3.94128 10.6912 5.44878 10.6912 7.31628C10.6912 9.18378 9.18366 10.6913 7.31616 10.6913Z" fill="white" fill-opacity="0.48"/>
</svg>
