<svg width="28" height="28" viewBox="0 0 28 28" fill="none" xmlns="http://www.w3.org/2000/svg">
<g transform="translate(2.625, 2.625)"><path id="Subtract" fill-rule="evenodd" clip-rule="evenodd" d="M11.1744 0C10.105 0 9.19242 0.77309 9.01662 1.82788L8.90982 2.46869C8.8552 2.79644 8.61825 3.06142 8.30707 3.17794C8.11779 3.24881 7.93162 3.32605 7.74882 3.4094C7.44635 3.54732 7.09125 3.52756 6.82075 3.33435L6.29182 2.95654C5.42167 2.335 4.2297 2.43365 3.47357 3.18979L3.18981 3.47354C2.43368 4.22968 2.33503 5.42164 2.95657 6.2918L3.33436 6.82071C3.52758 7.09122 3.54733 7.44632 3.40942 7.74879C3.32606 7.93159 3.24882 8.11777 3.17794 8.30706C3.06143 8.61823 2.79645 8.85518 2.46869 8.90981L1.82788 9.01661C0.773091 9.19241 0 10.105 0 11.1743V11.5756C0 12.645 0.77309 13.5576 1.82788 13.7334L2.46869 13.8402C2.79644 13.8948 3.06142 14.1318 3.17794 14.4429C3.24881 14.6322 3.32605 14.8184 3.4094 15.0012C3.54731 15.3036 3.52756 15.6587 3.33434 15.9292L2.95652 16.4582C2.33498 17.3284 2.43363 18.5203 3.18976 19.2765L3.47352 19.5602C4.22965 20.3163 5.42162 20.415 6.29177 19.7935L6.82072 19.4156C7.09123 19.2224 7.44633 19.2027 7.74879 19.3406C7.9316 19.4239 8.11777 19.5012 8.30706 19.5721C8.61823 19.6886 8.85518 19.9536 8.90981 20.2813L9.01661 20.9221C9.19241 21.9769 10.105 22.75 11.1743 22.75H11.5756C12.645 22.75 13.5576 21.9769 13.7334 20.9221L13.8402 20.2813C13.8948 19.9536 14.1318 19.6886 14.4429 19.5721C14.6322 19.5012 14.8184 19.4239 15.0012 19.3406C15.3036 19.2027 15.6587 19.2224 15.9292 19.4157L16.4582 19.7935C17.3283 20.415 18.5203 20.3163 19.2764 19.5602L19.5602 19.2765C20.3163 18.5203 20.415 17.3284 19.7934 16.4582L19.4156 15.9293C19.2224 15.6588 19.2027 15.3037 19.3406 15.0012C19.4239 14.8184 19.5012 14.6322 19.5721 14.4429C19.6886 14.1318 19.9536 13.8948 20.2813 13.8402L20.9221 13.7334C21.9769 13.5576 22.75 12.645 22.75 11.5757V11.1744C22.75 10.105 21.9769 9.19242 20.9221 9.01662L20.2813 8.90982C19.9536 8.8552 19.6886 8.61825 19.5721 8.30707C19.5012 8.11779 19.4239 7.93163 19.3406 7.74883C19.2027 7.44636 19.2224 7.09126 19.4157 6.82076L19.7935 6.2918C20.415 5.42164 20.3164 4.22968 19.5602 3.47354L19.2765 3.18979C18.5203 2.43365 17.3284 2.335 16.4582 2.95654L15.9293 3.33436C15.6588 3.52758 15.3037 3.54733 15.0012 3.40942C14.8184 3.32606 14.6322 3.24882 14.4429 3.17794C14.1318 3.06143 13.8948 2.79645 13.8402 2.46869L13.7334 1.82788C13.5576 0.773091 12.645 0 11.5757 0H11.1744ZM11.375 15.75C13.7912 15.75 15.75 13.7912 15.75 11.375C15.75 8.95875 13.7912 7 11.375 7C8.95875 7 7 8.95875 7 11.375C7 13.7912 8.95875 15.75 11.375 15.75Z" fill="#000000"/></g>
</svg>
