<svg width="14.6667" height="11.3333" viewBox="0 0 14.6667 11.3333" fill="none" xmlns="http://www.w3.org/2000/svg">
<path fill-rule="evenodd" clip-rule="evenodd" d="M0 1.82143C0 0.815481 0.820811 0 1.83333 0H12.8333C13.8459 0 14.6667 0.815481 14.6667 1.82143V9.5119C14.6667 10.5179 13.8459 11.3333 12.8333 11.3333H1.83333C0.820811 11.3333 0 10.5179 0 9.5119V1.82143ZM1.22222 6.5253V9.5119C1.22222 9.84722 1.49583 10.119 1.83333 10.119H12.8333C13.1708 10.119 13.4444 9.84722 13.4444 9.5119V7.33482L11.6358 5.53794C11.3972 5.30084 11.0102 5.30084 10.7716 5.53794L9.21609 7.08333L9.59879 7.46354C9.83744 7.70065 9.83744 8.08507 9.59879 8.32217C9.36013 8.55928 8.9732 8.55928 8.73455 8.32217L4.50619 4.12128C4.26754 3.88417 3.88061 3.88417 3.64195 4.12128L1.22222 6.5253ZM8.96296 3.2381C8.96296 3.68518 8.59816 4.04762 8.14815 4.04762C7.69814 4.04762 7.33333 3.68518 7.33333 3.2381C7.33333 2.79101 7.69814 2.42857 8.14815 2.42857C8.59816 2.42857 8.96296 2.79101 8.96296 3.2381Z" fill="currentColor"/>
</svg>
