<svg width="16" height="16" viewBox="0 0 16 16" fill="none" xmlns="http://www.w3.org/2000/svg">
<path transform="translate(2.6667 2.6667)" d="M4.66662 9.99984V2.27589L1.13797 5.80453C0.877621 6.06488 0.455612 6.06488 0.195262 5.80453C-0.0650874 5.54418 -0.0650874 5.12217 0.195262 4.86182L4.86193 0.195156L4.91271 0.149583C5.17456 -0.0639836 5.56056 -0.0489211 5.80464 0.195156L10.4713 4.86182C10.7317 5.12217 10.7317 5.54418 10.4713 5.80453C10.211 6.06488 9.78894 6.06488 9.5286 5.80453L5.99995 2.27589V9.99984C5.99995 10.368 5.70147 10.6665 5.33328 10.6665C4.96509 10.6665 4.66662 10.368 4.66662 9.99984Z" fill="currentColor"/>
</svg>
