<svg width="14" height="14" viewBox="0 0 14 14" fill="none" xmlns="http://www.w3.org/2000/svg">
<path d="M10.5 7.58342H10.1033L8.93667 8.75008H10.0508L11.0833 9.91675H2.91667L3.955 8.75008H5.15083L3.98417 7.58342H3.5L1.75 9.33342V11.6668C1.75 12.3084 2.26917 12.8334 2.91083 12.8334H11.0833C11.725 12.8334 12.25 12.3143 12.25 11.6668V9.33342L10.5 7.58342ZM11.0833 11.6668H2.91667V11.0834H11.0833V11.6668ZM6.615 8.76175C6.8425 8.98925 7.21 8.98925 7.4375 8.76175L11.1475 5.05175C11.375 4.82425 11.375 4.45675 11.1475 4.22925L8.26 1.34175C8.03833 1.10842 7.67083 1.10842 7.44333 1.33592L3.7275 5.05175C3.5 5.27925 3.5 5.64675 3.7275 5.87425L6.615 8.76175ZM7.85167 2.57258L9.91667 4.63758L7.02917 7.52508L4.96417 5.46008L7.85167 2.57258Z" fill="#FFB300"/>
</svg>
