<svg width="16" height="16" viewBox="0 0 16 16" fill="none" xmlns="http://www.w3.org/2000/svg">
<g clip-path="url(#clip0_1_171)">
<path d="M3.66296 5.12771C1.91923 6.17414 0.820798 7.55349 0.820798 8.00368C0.820798 8.84589 3.9488 12.1625 8.00172 12.1625C8.89162 12.1625 9.7372 12.002 10.5107 11.7366L11.1171 12.322C10.1786 12.6689 9.1303 12.8843 8.00172 12.8843C3.34681 12.8843 0 9.15693 0 8.00368C0 7.32115 1.16991 5.74616 3.08728 4.57209L3.66296 5.12771ZM16 8.00368C16 8.66762 14.9047 10.1847 13.0754 11.3504L12.5045 10.7991C14.147 9.78253 15.1749 8.4865 15.1749 8.00368C15.1749 7.24398 12.0469 3.83831 8.00172 3.83831C7.18299 3.83831 6.40203 3.97728 5.67989 4.20976L5.07794 3.62855C5.96793 3.3137 6.95218 3.12305 8.00172 3.12305C12.6785 3.12305 16 6.84636 16 8.00368ZM6.99689 8.34537C7.10358 8.63495 7.34129 8.86438 7.64121 8.96721L9.57945 10.8378C9.10963 11.0824 8.57223 11.2209 8.00172 11.2209C6.15721 11.2209 4.65915 9.77391 4.65915 7.99226C4.65915 7.44212 4.80199 6.92388 5.05451 6.47073L6.99689 8.34537ZM11.3442 7.99226C11.3442 8.48471 11.2297 8.95159 11.0218 9.36757L6.57661 5.07557C7.00758 4.87434 7.49137 4.76358 8.00172 4.76358C9.84613 4.76358 11.3442 6.21061 11.3442 7.99226Z" fill="black" fill-opacity="0.85"/>
<path d="M12.7922 12.9936C12.9299 13.13 13.1514 13.1381 13.2934 12.9936C13.4464 12.845 13.4346 12.6425 13.2934 12.5094L3.21198 2.77214C3.07757 2.6423 2.84764 2.63578 2.70648 2.77214C2.56952 2.90442 2.56952 3.12734 2.70648 3.25961L12.7922 12.9936Z" fill="black" fill-opacity="0.85"/>
</g>
<defs>
<clipPath id="clip0_1_171">
<rect width="16" height="12" fill="white" transform="translate(0 2)"/>
</clipPath>
</defs>
</svg>
