<svg width="14.5592" height="14.5855" viewBox="0 0 14.5592 14.5855" fill="none" xmlns="http://www.w3.org/2000/svg">
<path d="M13.9087 10.5967V12.5967C13.9095 12.7824 13.8715 12.9662 13.7971 13.1363C13.7227 13.3064 13.6136 13.4591 13.4768 13.5846C13.34 13.7102 13.1785 13.8057 13.0026 13.8652C12.8267 13.9247 12.6403 13.9468 12.4554 13.9301C10.404 13.7072 8.43341 13.0062 6.70208 11.8834C5.0913 10.8598 3.72564 9.49418 2.70208 7.8834C1.5754 6.1442 0.87424 4.16406 0.655411 2.1034C0.638752 1.91904 0.660661 1.73324 0.719745 1.55781C0.778828 1.38239 0.873792 1.22119 0.998589 1.08448C1.12339 0.947767 1.27528 0.838538 1.44461 0.763746C1.61393 0.688954 1.79697 0.650239 1.98208 0.650065H3.98208C4.30562 0.64688 4.61927 0.76145 4.86459 0.97242C5.1099 1.18339 5.27013 1.47636 5.31541 1.79673C5.39983 2.43678 5.55638 3.06522 5.78208 3.67006C5.87177 3.90868 5.89119 4.16801 5.83802 4.41732C5.78485 4.66663 5.66132 4.89547 5.48208 5.07673L4.63541 5.9234C5.58445 7.59243 6.96638 8.97436 8.63541 9.9234L9.48208 9.07673C9.66334 8.89749 9.89218 8.77396 10.1415 8.72079C10.3908 8.66762 10.6501 8.68704 10.8887 8.77673C11.4936 9.00243 12.122 9.15898 12.7621 9.2434C13.0859 9.28908 13.3817 9.4522 13.5931 9.70173C13.8045 9.95125 13.9169 10.2698 13.9087 10.5967Z" stroke="currentColor" stroke-width="1.3" stroke-linecap="round" stroke-linejoin="round"/>
</svg>
